<svg width="700" height="332" viewBox="0 0 700 332" fill="none" xmlns="http://www.w3.org/2000/svg">
<path d="M31.6324 57.2785C32.2651 37.5492 28.4692 27.3664 16.4489 15.9107L0.632649 0H131.591L116.407 15.9107C105.02 26.73 100.591 38.8221 100.591 55.3692C100.591 70.0071 105.652 88.4635 115.142 101.828C124.632 117.103 145.509 132.377 178.407 149.561C204.978 163.562 226.488 175.654 225.223 176.291C224.59 177.563 199.284 171.199 168.917 162.289C137.917 153.379 102.489 141.287 89.2035 134.286C76.5505 127.922 58.2037 113.921 48.0813 102.465C35.4283 87.8271 30.9998 76.3714 31.6324 57.2785Z" fill="#9E8D86"/>
<path d="M277.733 0C277.733 0 271.629 7.67544 265.525 17.1836C256.846 30.7018 248.251 90.5702 246.733 158.114C247.998 72.802 232.92 28.6137 225.223 17.1836C217.526 5.75339 212.57 0 212.57 0H277.733Z" fill="#9E8D86"/>
<path d="M30.9998 234.205C30.3671 189.019 32.2651 171.836 40.4895 161.016C48.7139 150.197 56.9384 147.015 77.8158 147.651C92.3667 147.651 129.693 157.834 218.264 190.928L177.142 187.11C144.244 183.928 132.224 185.201 118.305 193.474C101.856 203.657 101.224 206.839 101.224 248.843C101.224 287.029 103.122 295.939 132.856 331.579H0L15.8162 312.486C30.3671 295.303 31.6324 288.302 30.9998 234.205Z" fill="#9E8D86"/>
<path d="M240.406 191.565C236.611 191.565 234.08 189.019 234.08 185.201C234.08 182.018 236.611 178.836 240.406 178.836C243.57 178.836 246.733 182.018 246.733 185.201C246.733 189.019 243.57 191.565 240.406 191.565Z" fill="#9E8D86"/>
<path d="M224.59 312.486C230.284 307.395 237.876 291.484 241.672 277.483L248.631 252.025L252.427 274.937C254.325 287.665 260.651 303.576 266.978 309.94C272.672 316.941 277.733 328.849 277.733 330.758H246.733H214.468C214.468 328.849 218.896 317.578 224.59 312.486Z" fill="#9E8D86"/>
<path d="M426.708 202.433L433.37 329.047H393.649C396.116 324.489 426.025 285.486 426.519 205.466C423.311 268.013 399.595 329.047 359.919 329.047C323.337 329.047 311.741 304.99 311.741 265.74C311.741 242.443 323.337 202.433 323.337 202.433H366.018C366.018 202.433 355.162 227.502 344.8 257.89C333.945 289.796 336.925 316.342 350 321.66C367.517 328.751 419.857 293.083 426.519 202.427L426.708 202.433Z" fill="#9E8D86"/>
<path d="M528.076 329.047H488.849C500.691 295.874 509.819 258.143 505.872 233.58C493.783 237.125 484.408 241.43 473.799 240.923C428.405 239.151 428.898 198.381 460.23 198.381C482.681 198.381 498.964 207.244 509.819 224.463C517.714 218.892 523.915 204.987 537.451 200.153C552.848 194.654 579.145 203.952 579.145 203.952L580.378 238.897C549.046 227.502 529.063 228.009 513.52 231.554C520.674 246.241 524.868 265.74 526.102 289.796C527.829 318.918 528.076 329.047 528.076 329.047ZM473.059 237.885C483.174 237.885 493.043 235.352 504.638 228.009C501.678 217.626 495.757 210.536 486.135 207.75C466.151 202.179 453.569 237.885 473.059 237.885Z" fill="#9E8D86"/>
<path d="M647.944 331.579C617.846 331.579 605.757 304.231 598.849 265.487C594.655 240.67 593.915 202.433 593.915 202.433H633.388C633.388 202.433 627.961 222.184 620.806 257.89C614.145 291.822 617.599 316.385 626.974 321.957C648.684 335.124 694.079 255.104 676.809 245.481C661.76 236.872 629.441 291.569 629.441 291.569L627.961 247.507C627.961 247.507 643.01 238.897 660.28 238.897C681.25 238.897 700 254.091 700 281.187C700 308.029 677.303 331.579 647.944 331.579Z" fill="#9E8D86"/>
</svg>
