<svg width="64" height="58" viewBox="0 0 64 58" fill="none" xmlns="http://www.w3.org/2000/svg">
<path d="M2.75 1C1.64543 1 0.75 1.89543 0.75 3C0.75 4.10457 1.64543 5 2.75 5V1ZM9.25 3L11.2418 2.81893C11.1481 1.78877 10.2844 1 9.25 1V3ZM61.25 12.75L63.2299 13.0328C63.3119 12.4589 63.1408 11.8776 62.7609 11.4396C62.381 11.0016 61.8298 10.75 61.25 10.75V12.75ZM10.1364 12.75L8.14458 12.9311L10.1364 12.75ZM11.9228 32.4008L9.93101 32.5818L11.9228 32.4008ZM2.75 5H9.25V1H2.75V5ZM19.0017 40.2907L52.9125 37.8685L52.6275 33.8787L18.7167 36.3009L19.0017 40.2907ZM60.7214 30.5922L63.2299 13.0328L59.2701 12.4672L56.7616 30.0265L60.7214 30.5922ZM7.25821 3.18107L8.14458 12.9311L12.1281 12.5689L11.2418 2.81893L7.25821 3.18107ZM8.14458 12.9311L9.93101 32.5818L13.9146 32.2197L12.1281 12.5689L8.14458 12.9311ZM61.25 10.75H10.1364V14.75H61.25V10.75ZM52.9125 37.8685C56.9036 37.5834 60.1555 34.5533 60.7214 30.5922L56.7616 30.0265C56.462 32.1236 54.7404 33.7277 52.6275 33.8787L52.9125 37.8685ZM18.7167 36.3009C16.2716 36.4755 14.1365 34.661 13.9146 32.2197L9.93101 32.5818C10.3502 37.1931 14.3832 40.6206 19.0017 40.2907L18.7167 36.3009Z" fill="#9E8D86"/>
<path d="M22.25 55C24.0449 55 25.5 53.5449 25.5 51.75C25.5 49.9551 24.0449 48.5 22.25 48.5C20.4551 48.5 19 49.9551 19 51.75C19 53.5449 20.4551 55 22.25 55Z" stroke="#9E8D86" stroke-width="4" stroke-linecap="round" stroke-linejoin="round"/>
<path d="M48.25 55C50.0449 55 51.5 53.5449 51.5 51.75C51.5 49.9551 50.0449 48.5 48.25 48.5C46.4551 48.5 45 49.9551 45 51.75C45 53.5449 46.4551 55 48.25 55Z" stroke="#9E8D86" stroke-width="4" stroke-linecap="round" stroke-linejoin="round"/>
</svg>
