<svg width="71" height="70" viewBox="0 0 71 70" fill="none" xmlns="http://www.w3.org/2000/svg">
<path fill-rule="evenodd" clip-rule="evenodd" d="M46.4755 0C46.6322 0 50.9855 2.71642 56.1223 6.02488C61.2765 9.33333 65.6646 12.2065 65.8909 12.4154C66.0999 12.6244 66.2914 12.9552 66.2914 13.1468C66.2914 13.3383 65.6123 14.5572 64.7939 15.8458C63.9755 17.1343 63.279 18.4229 63.2442 18.7189C63.1919 19.0149 63.07 20.1468 62.9655 21.2438C62.8611 22.3408 62.565 23.995 62.3387 24.9005C62.0949 25.806 61.6422 27.1816 61.3113 27.9478C60.9979 28.7139 60.4233 29.898 60.0402 30.5597C59.6571 31.2214 57.968 33.9204 56.279 36.5149C54.5899 39.1269 53.2143 41.3383 53.2143 41.4428C53.2143 41.5589 53.4291 41.5589 53.8586 41.4428C54.2243 41.3383 55.3735 41.2687 56.4357 41.2687C57.6198 41.2512 58.7516 41.3557 59.3959 41.5299C59.9705 41.6692 60.9108 42.0348 61.4854 42.3134C62.0601 42.592 63.2442 43.3234 64.0974 43.9677C64.9506 44.5945 65.7168 45.0995 65.7864 45.0995C65.8735 45.0995 66.483 42.7662 67.1795 39.9104C67.876 37.0721 68.5551 34.5995 68.7118 34.408C68.8685 34.199 69.1994 34.0771 69.5825 34.0771C70.0178 34.0771 70.279 34.199 70.5053 34.495C70.6795 34.7214 70.8188 35.0174 70.8014 35.1219C70.8014 35.2438 68.9556 42.8184 66.7093 51.9254C64.4631 61.0498 62.5825 68.694 62.5302 68.903C62.478 69.1294 62.269 69.4602 62.0427 69.6517C61.6596 70 61.5029 70 35.4531 70C9.40335 70 9.24664 70 8.84614 69.6517C8.63719 69.4602 8.42823 69.1642 8.39341 68.9901C8.34117 68.8333 6.4954 61.3284 4.26654 52.3259C2.0551 43.3234 0.191914 35.7139 0.157088 35.4353C0.104849 35.0871 0.174501 34.7736 0.40087 34.5299C0.574999 34.3209 0.923258 34.0945 1.18445 34.0423C1.53271 33.9726 1.77649 34.0597 2.07251 34.3383C2.40336 34.6517 2.68196 35.5224 4.37102 42.5224L5.32873 43.1667C5.85112 43.5149 6.93072 44.2637 7.7143 44.8035C8.68943 45.4826 9.56007 45.9179 10.4133 46.1617C11.4929 46.4751 11.9805 46.5274 13.5999 46.4577C14.6621 46.4055 15.7939 46.2662 16.1248 46.1617C16.4556 46.0572 16.8561 45.9005 16.9954 45.796C17.2218 45.6567 17.1695 45.5522 16.6994 45.0647C16.3859 44.7512 15.968 44.0896 15.7417 43.6194C15.4456 42.9751 15.3586 42.4353 15.3586 41.5299C15.3586 40.5721 15.4631 40.1194 15.8113 39.4403C16.0725 38.9527 18.3884 35.2786 20.983 31.2562C23.5775 27.2338 25.667 23.9254 25.6496 23.8905C25.6322 23.8557 24.5874 24.0473 23.3511 24.291C21.8362 24.5871 20.8611 24.709 20.3909 24.6219C20.0078 24.5697 19.4158 24.3955 19.0849 24.2562C18.7541 24.1343 18.1795 23.8035 17.8138 23.5423C17.4307 23.2811 16.9083 22.7239 16.6297 22.2886C16.3685 21.8532 16.0551 21.0697 15.9332 20.5473C15.7939 19.8507 15.7939 19.3284 15.9332 18.6318C16.0377 18.1095 16.3685 17.2736 16.682 16.8035C16.9954 16.3159 17.6048 15.6891 18.0402 15.4104C18.5626 15.0622 19.8859 14.5746 21.9581 13.9652C23.682 13.4602 25.9456 12.7637 27.0078 12.4328C28.07 12.0846 29.6372 11.4577 30.4904 11.0224C31.3437 10.5871 33.0327 9.59453 34.2342 8.79353C35.4357 7.99254 37.0725 7.01741 37.8909 6.61692C38.7093 6.19901 40.1372 5.62438 42.7665 4.78856L44.1944 2.61194C44.9606 1.41045 45.7267 0.348259 45.8835 0.226368C46.0402 0.104477 46.3014 0 46.4581 0H46.4755ZM45.8486 4.56219L45.2218 5.57214C53.5277 10.8831 57.2367 13.2861 58.8561 14.3134L61.7641 16.194C62.983 14.1741 63.3138 13.5473 63.279 13.5299C63.2616 13.495 59.6397 11.1443 55.2342 8.32338C50.8287 5.50249 47.1372 3.15174 47.0327 3.08209C46.9282 3.02985 46.7541 3.11692 46.667 3.27363C46.5626 3.43035 46.2143 4.02239 45.8486 4.56219ZM38.8312 8.84577C38.2218 9.1592 37.0029 9.89055 36.1148 10.5C35.2441 11.1095 33.9556 11.9279 33.2939 12.3284C32.6322 12.7289 31.3262 13.3731 30.4208 13.7562C29.5153 14.1567 26.6944 15.097 24.1521 15.8632C20.3909 16.9776 19.4506 17.3259 19.0501 17.709C18.7889 17.9876 18.4755 18.51 18.3884 18.893C18.2491 19.398 18.2491 19.7811 18.4058 20.2861C18.5277 20.6692 18.876 21.209 19.172 21.4701C19.468 21.7488 20.0078 22.0448 20.3561 22.1318C20.8959 22.2537 21.7143 22.1493 24.8138 21.4876C27.8262 20.8433 28.6795 20.7214 28.9755 20.8781C29.2019 20.9826 29.4456 21.2612 29.5501 21.505C29.6546 21.7488 29.672 22.0796 29.6024 22.2363C29.5501 22.4104 26.9034 26.5896 23.7342 31.5174C20.5825 36.4453 17.9183 40.7289 17.8138 41.0075C17.7093 41.3557 17.7209 41.762 17.8486 42.2264C17.9531 42.6443 18.284 43.1493 18.6496 43.4801C18.9979 43.7935 19.5377 44.107 19.8511 44.1592C20.2516 44.2463 20.6521 44.1592 21.2616 43.8632C22.1148 43.4627 22.2367 43.2886 26.5377 36.5672C28.9581 32.7886 31.0999 29.5149 31.2914 29.2886C31.483 29.0796 31.8312 28.9055 32.075 28.9055C32.3188 28.9055 32.7019 29.097 32.9456 29.3408C33.1894 29.5846 33.381 29.9328 33.381 30.1244C33.381 30.3159 30.5078 34.9129 27.0078 40.3458C23.5078 45.796 20.4257 50.5846 20.182 51.0199C19.8337 51.6468 19.7641 51.9602 19.8163 52.5871C19.8685 53.0224 20.0775 53.6318 20.2864 53.9279C20.5128 54.2761 20.9655 54.607 21.4183 54.7811C21.9929 54.9901 22.3063 55.0075 22.8461 54.8682C23.2292 54.7811 23.7342 54.4851 23.978 54.2413C24.2218 53.9801 27.3909 49.1393 31.0476 43.4801C36.1496 35.5224 37.769 33.1368 38.1347 32.9975C38.5178 32.8582 38.6919 32.893 39.075 33.1891C39.371 33.4154 39.58 33.7463 39.6148 34.0597C39.6496 34.4776 38.6048 36.2015 34.0601 43.2711C30.978 48.0597 28.3835 52.2562 28.2964 52.5871C28.1745 52.9876 28.1745 53.4055 28.2964 53.806C28.4009 54.1368 28.7665 54.6766 29.0974 54.9726C29.6372 55.4602 29.8461 55.5473 30.6471 55.5473C31.3088 55.5473 31.7093 55.4428 32.1446 55.1642C32.5626 54.8682 34.182 52.5 37.9257 46.6667C40.7989 42.209 43.376 38.2388 43.6546 37.8209C44.0551 37.2637 44.2989 37.0896 44.6645 37.0896C44.9257 37.0896 45.3088 37.2114 45.5352 37.3507C45.7964 37.5249 45.9183 37.7861 45.9183 38.1692C45.9183 38.6045 45.4481 39.4577 44.0725 41.6169C43.0626 43.2015 42.0352 44.8035 41.8088 45.1866C41.5476 45.6393 41.3909 46.1617 41.3909 46.6667C41.3909 47.2065 41.5128 47.6418 41.7914 48.0597C42.0004 48.3905 42.3835 48.7736 42.6098 48.8781C42.8536 49 43.3934 49.1045 43.8287 49.1045C44.3685 49.1045 44.8039 48.9826 45.2044 48.7214C45.6571 48.4254 47.3461 45.9527 51.6994 39.1791C54.9382 34.1468 57.9332 29.3756 58.3511 28.5572C58.769 27.7388 59.3262 26.4502 59.57 25.6841C59.8138 24.9179 60.1447 23.7164 60.284 23.0199C60.4233 22.3408 60.5974 21 60.6496 20.0597L60.7367 18.3706C47.4506 9.87313 43.3934 7.38309 43.1496 7.36567C42.9058 7.34826 42.07 7.5398 41.3039 7.81841C40.5377 8.0796 39.4233 8.54975 38.8138 8.84577H38.8312ZM53.075 44.2114C52.5526 44.403 51.7516 44.8035 51.2989 45.0995C50.6372 45.5174 50.1496 46.092 49.0178 47.8333C48.2168 49.0697 47.4158 50.1841 47.2243 50.3582C47.0501 50.5149 46.5452 50.8284 46.1098 51.0547C45.4481 51.3856 45.065 51.4552 43.7417 51.4552C42.2964 51.4552 42.0874 51.4204 41.3213 50.9328C40.8511 50.6542 40.2243 50.097 39.9108 49.7139L39.371 49.0174C35.6098 54.7985 34.3039 56.6617 34.0078 56.8706C33.7118 57.0796 33.1372 57.4279 32.7019 57.6194C32.1621 57.8632 31.5526 57.9851 30.6994 57.9851C29.7765 57.9851 29.2715 57.8806 28.6098 57.5672C28.1397 57.3582 27.4432 56.8358 27.0949 56.4527C26.7292 56.0522 26.4332 55.6169 26.4332 55.495C26.4506 55.3905 26.1198 55.5995 25.7019 55.9652C25.284 56.3483 24.6048 56.8184 24.1695 57.0099C23.6471 57.2363 23.0029 57.3582 22.2541 57.3582C21.4009 57.3582 20.8959 57.2363 20.1646 56.9055C19.6422 56.6617 18.9805 56.1915 18.7019 55.8607C18.4233 55.5473 18.0402 54.9726 17.8312 54.5896C17.5526 54.0323 17.4655 53.5796 17.4655 52.4129C17.4655 51.194 17.5352 50.7935 17.8835 50.1493C18.1098 49.7139 18.58 48.9478 18.9282 48.4428C19.2765 47.9378 19.5203 47.5025 19.468 47.4502C19.4158 47.398 18.9108 47.5896 18.3362 47.8682C17.7616 48.1468 16.8213 48.5124 16.2466 48.6517C15.6024 48.8259 14.4531 48.9303 13.2864 48.9303C12.1894 48.9303 10.9009 48.8085 10.2914 48.6692C9.68196 48.5299 8.70684 48.1642 8.1148 47.8682C7.50535 47.5547 6.68694 47.0672 6.28644 46.7711C5.86853 46.4751 5.50286 46.2662 5.46803 46.3184C5.4158 46.3706 6.51281 50.9851 7.88843 56.592C9.26405 62.199 10.4481 66.9527 10.5004 67.1617L10.5874 67.5622C59.065 67.5622 60.3884 67.5448 60.4581 67.2488C60.5103 67.092 61.6073 62.5995 62.9133 57.2886C64.2193 51.9776 65.2292 47.607 65.1422 47.5896C65.0725 47.5721 64.2193 46.9975 63.2616 46.301C62.3039 45.6219 60.9805 44.8035 60.3014 44.4726C59.6397 44.1418 58.769 43.8458 58.3859 43.8109C58.0029 43.7587 57.376 43.6891 56.9929 43.6542C56.6098 43.6368 55.7914 43.6542 55.1646 43.7239C54.5377 43.7935 53.5974 44.0025 53.075 44.2114ZM55.8785 51.3682C56.366 51.3682 56.6795 51.4901 56.9929 51.8035C57.2715 52.0821 57.4282 52.4304 57.4282 52.796C57.4456 53.1095 57.2889 53.5622 57.1148 53.806C56.9407 54.0498 56.5576 54.3109 56.279 54.3806C55.9481 54.4677 55.5999 54.4328 55.269 54.2935C54.9904 54.1716 54.6596 53.8582 54.5377 53.5796C54.3984 53.3184 54.2765 52.9527 54.2765 52.7786C54.2591 52.5871 54.468 52.204 54.7292 51.908C55.0949 51.4726 55.3387 51.3682 55.8785 51.3682ZM44.769 59.0299C45.0825 59.0299 45.5004 59.1517 45.7267 59.291C45.9357 59.4303 46.1969 59.7612 46.284 60.0224C46.4058 60.3532 46.4058 60.6841 46.284 61.0672C46.1795 61.4328 45.9183 61.7463 45.5874 61.903C45.3088 62.0423 44.9083 62.1642 44.7168 62.1642C44.5252 62.1642 44.1247 61.9552 43.8287 61.6766C43.4108 61.3109 43.2889 61.0672 43.2889 60.5099C43.2715 59.9701 43.376 59.7438 43.7417 59.4303C44.0203 59.204 44.4556 59.0299 44.769 59.0299ZM20.2516 60.1617C20.5476 60.2139 20.9481 60.4403 21.1745 60.6841C21.3835 60.9279 21.5576 61.3109 21.5576 61.5547C21.5576 61.7985 21.4705 62.1642 21.3486 62.3731C21.2442 62.5995 21.0352 62.8607 20.8785 62.9826C20.7218 63.1045 20.3039 63.209 19.9556 63.209C19.4506 63.209 19.1894 63.0871 18.8586 62.7214C18.58 62.4428 18.4058 62.0423 18.4233 61.7289C18.4233 61.4502 18.5451 61.0323 18.7019 60.806C18.8586 60.5796 19.1546 60.3358 19.3636 60.2488C19.5551 60.1617 19.973 60.1269 20.2516 60.1617Z" fill="#DACCCC"/>
</svg>
