<svg width="149" height="151" viewBox="0 0 149 151" fill="none" xmlns="http://www.w3.org/2000/svg">
<path fill-rule="evenodd" clip-rule="evenodd" d="M74.4136 0.0040003C77.0586 -0.0254969 77.7052 0.0924917 79.9682 0.888915C81.4082 1.39037 83.4067 2.36377 84.4353 3.04221C85.4934 3.69115 87.051 5.04802 87.9033 6.02142C88.785 6.99483 89.9311 8.64667 90.4601 9.70857C91.0185 10.7705 91.6945 12.3633 92.0178 13.2482C92.5174 14.7821 92.5468 17.0239 92.6937 103.51L94.751 105.958C95.8678 107.285 97.3666 109.38 98.0426 110.589C98.7479 111.798 99.659 113.863 100.07 115.161C100.511 116.459 101.04 118.642 101.217 120.028C101.452 121.532 101.54 123.715 101.422 125.485C101.334 127.107 100.952 129.497 100.629 130.794C100.306 132.092 99.4239 134.364 98.7185 135.809C98.0132 137.254 96.5731 139.526 95.5151 140.823C94.4865 142.121 92.8113 143.862 91.7827 144.717C90.754 145.543 89.1082 146.693 88.1384 147.283C87.1685 147.873 85.5227 148.67 84.4647 149.083C83.4067 149.466 81.467 150.056 80.1151 150.41C78.4105 150.823 76.7354 151 74.4724 151C71.9449 151 70.593 150.823 68.3594 150.263C66.8018 149.85 64.7151 149.142 63.7453 148.729C62.7755 148.286 60.9827 147.313 59.7778 146.546C58.5728 145.75 56.5743 144.098 55.34 142.829C54.1056 141.561 52.6068 139.791 51.9896 138.906C51.4018 138.021 50.5495 136.487 50.0793 135.514C49.6091 134.541 48.9625 132.889 48.6392 131.827C48.3159 130.765 47.9045 129.054 47.7282 127.992C47.5812 126.93 47.4343 125.072 47.4343 123.863C47.4343 122.653 47.64 120.5 47.8751 119.084C48.1102 117.639 48.698 115.456 49.1976 114.217C49.6678 112.949 50.5495 111.12 51.1079 110.146C51.6957 109.173 53.0476 107.315 56.1041 103.657L56.398 35.3121L57.1327 34.7517C57.5442 34.4272 58.1613 34.1617 58.514 34.1912C58.8961 34.1912 59.5132 34.5157 60.6594 35.6661V69.9418C60.6594 102.949 60.63 104.306 60.101 105.427C59.7778 106.076 58.661 107.61 57.6029 108.819C56.5449 110.028 55.1343 112.034 54.5171 113.244C53.8999 114.453 53.077 116.37 52.7537 117.521C52.4011 118.671 52.019 120.795 51.9308 122.24C51.8133 123.863 51.9014 125.809 52.1072 127.255C52.3129 128.553 52.8713 130.617 53.3415 131.827C53.7823 133.036 54.7228 134.895 55.3988 135.956C56.0747 137.018 57.3091 138.582 58.132 139.467C58.9548 140.322 60.5419 141.708 61.6881 142.505C62.8048 143.301 64.6564 144.334 65.8026 144.806C66.9193 145.248 68.9766 145.867 70.3579 146.162C72.18 146.516 73.6201 146.605 75.6479 146.487C77.1762 146.398 79.2334 146.103 80.2033 145.867C81.1731 145.602 83.2304 144.776 84.7586 144.009C87.1392 142.829 87.9621 142.239 90.3426 139.821C92.5174 137.638 93.4285 136.458 94.3689 134.629C95.0449 133.331 95.8972 131.266 96.2498 130.057C96.8376 128.199 96.9552 127.196 96.9552 123.863C96.9552 120.529 96.8376 119.527 96.2498 117.668C95.8972 116.459 95.0742 114.453 94.4277 113.244C93.8105 112.034 92.3998 110.028 91.3418 108.819C90.2838 107.61 89.167 106.076 88.8437 105.427C88.3147 104.276 88.2853 102.772 88.2853 60.8862C88.2853 30.8875 88.1972 16.9649 87.9621 15.7555C87.7857 14.7821 87.2273 13.1302 86.7277 12.0683C86.1693 10.918 85.1701 9.50209 84.1708 8.52868C83.2598 7.61427 81.7021 6.46388 80.6441 5.93293C79.4979 5.34299 77.8521 4.84154 76.5296 4.63506C74.8544 4.36958 73.8552 4.36958 72.2682 4.63506C71.122 4.84154 69.3587 5.43148 68.3006 5.93293C67.2132 6.49338 65.685 7.58477 64.7739 8.52868C63.7747 9.50209 62.7755 10.918 62.2171 12.0683C61.7174 13.1302 61.159 14.7821 60.9827 15.7555C60.8064 16.7289 60.6594 19.6491 60.6594 22.2449C60.6888 26.345 60.6007 27.0529 60.1598 27.6723C59.7778 28.1738 59.3369 28.3803 58.6022 28.3803C57.8381 28.3803 57.3972 28.1738 56.8682 27.5249C56.1629 26.6694 56.1629 26.6399 56.3098 20.77C56.4274 16.3454 56.6037 14.4576 56.9858 13.2482C57.2503 12.3633 57.9556 10.682 58.5434 9.56108C59.2194 8.23371 60.3655 6.75885 61.6881 5.43148C62.9224 4.1926 64.5094 2.95372 65.6556 2.36377C66.7136 1.80333 68.4182 1.0364 69.4762 0.682435C70.9457 0.180983 72.0625 0.0040003 74.3842 0.0040003H74.4136ZM4.76106 58.4674C7.14159 58.5264 7.55304 58.6149 8.14082 59.2048C8.52288 59.5883 8.81678 60.2372 8.81678 60.7092C8.81678 61.1811 8.55227 61.8596 8.22899 62.184C7.69999 62.774 7.31793 62.833 4.40839 62.833C1.49885 62.833 1.11679 62.774 0.587785 62.184C0.264503 61.8596 0 61.2106 0 60.7387C0 60.2962 0.176336 59.7063 0.38206 59.4113C0.617175 59.1458 1.05801 58.7919 1.41068 58.6444C1.76336 58.4969 3.2916 58.4084 4.76106 58.4674ZM119.761 64.5733C119.996 64.5733 121.084 65.1632 124.17 67.228L125.992 65.9892C127.02 65.3107 128.196 64.7503 128.607 64.7503C129.048 64.7208 129.695 64.9863 130.018 65.3107C130.371 65.6352 130.723 66.1072 130.812 66.3431C130.87 66.5791 130.812 67.1396 130.635 67.6115C130.459 68.0835 129.548 68.9389 126.197 71.2102L126.227 72.7735C126.227 73.5994 126.344 74.3074 126.521 74.3074C126.668 74.3074 127.197 74.0714 127.696 73.8059C128.49 73.334 128.637 73.3045 129.372 73.7174C129.842 73.9829 130.371 74.5138 130.576 74.8973C130.9 75.4578 130.9 75.8412 130.665 76.4607C130.459 76.9326 129.518 77.8175 128.255 78.6729C126.521 79.8233 126.197 80.1773 126.286 80.7673C126.344 81.3277 126.903 81.7997 128.578 82.7731C129.871 83.54 130.988 84.0119 131.282 83.894C131.576 83.8055 131.928 83.422 132.105 83.009C132.252 82.5961 132.399 81.5342 132.399 80.6493C132.399 79.7643 132.546 78.7319 132.693 78.378C132.869 77.9945 133.31 77.5226 133.721 77.3456C134.133 77.1391 134.632 76.9621 134.809 76.9621C135.014 76.9326 135.543 77.1981 135.984 77.5521C136.66 78.024 136.807 78.378 136.807 79.3219C136.807 79.9708 136.836 80.5018 136.866 80.5018C136.925 80.5018 137.542 80.2068 138.276 79.7938C139.393 79.2039 139.628 78.8794 139.805 77.9355C139.922 77.3161 140.04 76.3132 140.04 75.7232C140.04 75.1038 140.216 74.2779 140.392 73.8649C140.598 73.452 141.068 73.0095 141.421 72.8325C141.803 72.685 142.303 72.5375 142.567 72.5375C142.832 72.5375 143.361 72.862 143.743 73.275C144.389 73.9534 144.448 74.2189 144.301 78.8204L146.359 79.8823C147.74 80.5903 148.533 81.2097 148.768 81.7701C149.092 82.4191 149.062 82.7141 148.768 83.3925C148.563 83.835 148.034 84.3659 147.593 84.5724C146.888 84.8969 146.564 84.8084 144.595 83.894C143.39 83.3335 142.244 82.8615 142.097 82.8615C141.921 82.8615 141.215 83.186 139.158 84.3364L140.099 85.0148C140.598 85.3688 141.157 86.0767 141.304 86.5487C141.509 87.2566 141.451 87.5811 141.01 88.171C140.628 88.643 140.069 88.938 139.423 88.997C138.747 89.0854 137.806 88.7905 136.454 88.112C134.691 87.2566 134.397 87.1681 133.721 87.5221C133.016 87.8466 132.986 87.9941 132.986 90.5308C132.986 93.0676 133.016 93.215 133.721 93.569C134.368 93.8935 134.72 93.805 136.719 92.8021C138.541 91.9172 139.158 91.7402 139.746 91.9467C140.157 92.0942 140.657 92.4186 140.863 92.6251C141.068 92.8611 141.186 93.569 141.157 94.218C141.098 95.1619 140.892 95.5158 139.158 96.7252L140.481 97.4626C141.215 97.8756 141.921 98.2001 142.097 98.2001C142.244 98.2001 143.361 97.7281 144.507 97.1677C145.859 96.5187 146.858 96.1943 147.24 96.3123C147.563 96.4302 148.063 96.7252 148.357 96.9907C148.651 97.2562 148.857 97.8461 148.857 98.3476C148.857 98.8195 148.71 99.439 148.563 99.6749C148.416 99.9109 147.417 100.589 144.331 102.182L144.389 104.778C144.448 107.256 144.419 107.374 143.625 107.934C143.184 108.288 142.567 108.524 142.244 108.524C141.921 108.524 141.451 108.347 141.186 108.141C140.921 107.934 140.569 107.492 140.392 107.138C140.187 106.754 140.04 105.751 140.04 104.925C140.04 104.07 139.922 103.038 139.805 102.684C139.687 102.271 139.041 101.681 138.276 101.268C137.542 100.855 136.925 100.56 136.866 100.56C136.836 100.56 136.807 101.091 136.807 101.74C136.807 102.684 136.66 103.038 135.984 103.51C135.543 103.864 134.926 104.1 134.603 104.1C134.28 104.1 133.809 103.923 133.515 103.716C133.251 103.51 132.898 103.008 132.722 102.566C132.546 102.094 132.399 100.884 132.399 99.8224C132.399 98.0821 132.34 97.8756 131.664 97.4626C130.959 97.0497 130.812 97.0792 128.637 98.2886C126.873 99.262 126.344 99.7044 126.286 100.265C126.197 100.884 126.521 101.209 128.255 102.418C129.518 103.244 130.459 104.129 130.665 104.63C130.9 105.25 130.9 105.604 130.576 106.164C130.341 106.577 129.812 107.108 129.372 107.344C128.637 107.757 128.49 107.728 127.696 107.285C127.197 106.99 126.668 106.754 126.521 106.754C126.344 106.754 126.227 107.462 126.197 109.851L128.284 111.267C129.548 112.123 130.459 112.978 130.635 113.48C130.812 113.922 130.87 114.483 130.812 114.718C130.723 114.954 130.371 115.426 130.018 115.751C129.695 116.075 129.048 116.341 128.607 116.311C128.196 116.311 127.02 115.751 124.17 113.834L122.083 115.249C120.202 116.518 119.938 116.606 119.085 116.341C118.556 116.164 117.939 115.662 117.704 115.249C117.381 114.63 117.322 114.247 117.557 113.627C117.763 113.096 118.586 112.3 121.789 110.146L121.818 106.754L120.79 107.285C119.996 107.669 119.556 107.728 118.968 107.492C118.527 107.315 117.968 106.843 117.704 106.4C117.381 105.781 117.322 105.427 117.557 104.778C117.763 104.247 118.586 103.451 119.82 102.625C121.525 101.504 121.789 101.179 121.818 100.412C121.818 99.6159 121.613 99.4095 119.614 98.2886C117.616 97.1382 117.351 97.0497 116.734 97.4036C116.176 97.7576 116.058 98.1411 115.882 100.294C115.706 102.448 115.588 102.861 114.941 103.451C114.53 103.805 113.913 104.1 113.589 104.1C113.266 104.1 112.796 104.011 112.531 103.893C112.267 103.746 111.856 103.244 111.62 102.772C111.385 102.3 111.268 101.592 111.356 101.238C111.444 100.855 111.444 100.56 111.297 100.589C111.18 100.589 110.504 100.973 108.446 102.212L108.27 104.719C108.094 106.961 107.976 107.256 107.241 107.875C106.624 108.377 106.183 108.524 105.654 108.377C105.243 108.288 104.685 107.964 104.391 107.698C103.92 107.285 103.862 106.784 103.92 102.182L101.922 101.15C100.511 100.412 99.8059 99.8519 99.512 99.2325C99.1594 98.4655 99.1594 98.2296 99.512 97.6101C99.7471 97.1972 100.306 96.6957 100.746 96.5187C101.452 96.1648 101.775 96.2533 103.744 97.1677C104.949 97.7281 106.036 98.2001 106.154 98.2001C106.301 98.2001 107.006 97.8756 109.181 96.7252L108.211 96.0468C107.712 95.6633 107.124 95.0144 106.977 94.6014C106.742 94.0115 106.801 93.6575 107.183 93.0676C107.477 92.6546 108.064 92.1532 108.505 92.0057C109.21 91.7402 109.681 91.8582 111.62 92.8021C113.736 93.864 113.942 93.8935 114.618 93.4805C115.323 93.0676 115.382 92.8906 115.382 90.5308C115.382 88.23 115.323 87.9941 114.706 87.6106C114.089 87.2566 113.795 87.3156 111.826 88.1415C110.533 88.702 109.269 89.0559 108.77 88.997C108.27 88.938 107.682 88.584 107.3 88.0826C106.801 87.4336 106.742 87.1386 106.977 86.4897C107.124 86.0472 107.712 85.3983 109.181 84.3364L107.77 83.599C107.006 83.186 106.301 82.8615 106.154 82.8615C106.036 82.8615 105.125 83.2745 104.097 83.776C103.098 84.2774 101.863 84.6904 101.393 84.6904C100.805 84.7199 100.306 84.4544 99.8353 83.9234C99.4826 83.5105 99.1888 82.9205 99.1888 82.6551C99.1594 82.3601 99.4239 81.7997 99.7178 81.3867C100.041 80.9737 101.099 80.2363 103.891 78.8794V76.3132C103.891 73.8354 103.92 73.6879 104.685 73.1275C105.155 72.7735 105.743 72.508 106.007 72.5375C106.301 72.5375 106.889 72.8325 107.3 73.216C107.976 73.7764 108.094 74.1599 108.211 75.7822C108.27 76.8441 108.388 77.9945 108.446 78.378C108.535 78.7614 109.093 79.3219 109.916 79.7643C110.651 80.1773 111.297 80.5018 111.385 80.5018C111.473 80.5018 111.532 79.9708 111.532 79.3219C111.532 78.378 111.679 78.024 112.326 77.5521C112.796 77.1981 113.384 76.9326 113.648 76.9621C113.942 76.9621 114.53 77.2866 114.971 77.67C115.735 78.319 115.794 78.5845 115.852 80.7673C115.941 82.95 115.999 83.186 116.675 83.599C117.381 84.0119 117.528 83.9824 119.614 82.8026C121.613 81.6522 121.818 81.4457 121.818 80.6493C121.789 79.8823 121.525 79.5579 119.82 78.437C118.586 77.6111 117.763 76.8146 117.557 76.2837C117.322 75.6347 117.381 75.2808 117.704 74.6613C117.968 74.2189 118.527 73.7469 118.938 73.5699C119.526 73.3635 119.938 73.393 120.555 73.7174C120.996 73.9534 121.466 74.1894 121.583 74.2189C121.73 74.2779 121.818 73.5404 121.818 70.9152L119.908 69.6763C118.85 68.9684 117.822 68.054 117.616 67.641C117.322 67.0511 117.351 66.7561 117.675 66.1071C117.88 65.6647 118.351 65.1632 118.703 64.9568C119.026 64.7503 119.526 64.5733 119.761 64.5733ZM119.761 87.8761L119.908 93.3035C122.876 95.0439 123.905 95.5453 124.081 95.5453C124.287 95.5453 125.375 95.0144 126.521 94.3654L128.578 93.1856V87.8761C125.375 86.0472 124.287 85.5163 124.081 85.5163C123.905 85.5163 122.847 86.0472 121.73 86.6962L119.761 87.8761ZM74.5018 9.73807C75.648 9.73807 76.5884 9.91505 77.5876 10.4165C78.4105 10.7705 79.5567 11.6554 80.1739 12.3043C80.8498 13.0712 81.4376 14.1626 81.7315 15.1066C82.1136 16.4339 82.1724 22.4808 82.143 108.672L83.1128 109.114C83.6418 109.35 85.0819 110.53 86.3162 111.769C88.0208 113.45 88.8143 114.512 89.6372 116.193C90.1956 117.403 90.8716 119.35 91.1067 120.47C91.3418 121.621 91.5475 123.066 91.5475 123.715C91.5769 124.364 91.43 125.632 91.2536 126.517C91.0773 127.461 90.6953 128.435 90.3132 128.818C89.9311 129.172 89.4315 129.467 89.1376 129.467C88.8437 129.467 88.2853 129.29 87.8739 129.113C87.4624 128.907 87.051 128.464 86.9628 128.14C86.8746 127.815 86.8746 126.547 86.9922 125.337C87.1098 124.099 87.051 122.417 86.8746 121.503C86.6983 120.618 86.1987 119.143 85.7872 118.258C85.3464 117.373 84.259 115.898 83.3479 114.984C82.4663 114.099 80.938 112.978 79.9976 112.477C79.0277 112.005 78.146 111.385 77.9991 111.12C77.8521 110.825 77.7346 103.156 77.7346 77.5521H71.269V94.0705C71.269 103.156 71.1808 110.825 71.0338 111.12C70.8869 111.385 70.0052 112.005 69.0354 112.477C68.0949 112.978 66.5667 114.099 65.685 114.984C64.7739 115.898 63.6865 117.373 63.2751 118.258C62.8636 119.143 62.3346 120.824 62.1583 121.945C61.8644 123.597 61.8644 124.394 62.1583 125.927C62.3346 126.989 62.8636 128.582 63.2751 129.467C63.6865 130.352 64.7739 131.827 65.685 132.741C66.5667 133.626 68.0361 134.718 68.9178 135.131C69.8289 135.543 71.3277 136.045 72.2976 136.251C73.2968 136.458 74.7663 136.546 75.6186 136.428C76.4708 136.34 77.7934 136.045 78.5575 135.779C79.3216 135.514 80.556 134.924 81.2613 134.452C81.996 133.98 82.9071 133.597 83.2598 133.597C83.6124 133.597 84.259 133.921 84.6411 134.334C85.1113 134.806 85.3758 135.396 85.3758 135.956C85.3758 136.605 85.1407 137.048 84.4353 137.608C83.9063 138.051 82.8777 138.7 82.143 139.054C81.4376 139.437 80.027 139.968 79.0571 140.263C77.9109 140.617 76.3533 140.794 74.5018 140.794C72.6796 140.794 71.122 140.617 69.9464 140.263C68.9766 139.968 67.419 139.319 66.4491 138.818C65.5087 138.287 63.9216 137.136 62.9224 136.222C61.9526 135.308 60.6594 133.715 60.0423 132.682C59.4251 131.65 58.661 129.998 58.3671 129.025C58.0732 128.051 57.7205 126.252 57.6029 125.042C57.4854 123.479 57.5442 122.181 57.8675 120.618C58.132 119.409 58.8373 117.403 59.4545 116.193C60.0716 114.925 61.2472 113.244 62.2171 112.211C63.1281 111.238 64.5388 110.058 66.8606 108.672V62.656C66.8606 21.301 66.9193 16.4634 67.3308 15.0181C67.7129 13.7792 68.1537 13.0417 69.3293 11.9209C70.1522 11.0949 71.2983 10.269 71.8567 10.092C72.4445 9.91505 73.6201 9.76756 74.5018 9.73807ZM71.7098 15.903C71.3277 16.6699 71.269 20.5045 71.269 44.9577V73.1275H77.7346C77.7346 20.5045 77.7052 16.6699 77.2938 15.903C77.0586 15.431 76.559 14.8116 76.2063 14.5756C75.8537 14.3396 75.0896 14.1331 74.5018 14.1331C73.9434 14.1331 73.1793 14.3396 72.8266 14.5756C72.4739 14.8116 71.9743 15.431 71.7098 15.903ZM26.4503 34.6632C26.7736 34.7812 27.3026 35.0761 27.5671 35.3416C28.008 35.7546 28.0961 36.315 28.0961 39.0583C28.0667 41.713 27.9786 42.3914 27.5671 42.8339C27.2732 43.1289 26.6267 43.3648 26.0095 43.3648C25.3629 43.3648 24.8045 43.1289 24.3931 42.7159C23.9229 42.2144 23.8053 41.6245 23.7465 39.4122C23.6584 37.3179 23.7759 36.5215 24.1286 35.961C24.3637 35.5776 24.8633 35.0761 25.2454 34.8697C25.598 34.6632 26.1271 34.5747 26.4503 34.6632ZM9.19884 41.5655C9.81601 41.5655 10.5507 42.126 12.2847 43.8663C13.8423 45.4296 14.5477 46.3735 14.5771 46.875C14.5771 47.288 14.342 47.9074 14.0481 48.2909C13.7836 48.6448 13.1076 49.0283 12.5786 49.1758C11.6969 49.3823 11.5206 49.2643 9.28701 47.0225C7.46487 45.1937 6.93587 44.4857 6.93587 43.8368C6.93587 43.3648 7.25915 42.7159 7.64121 42.3029C8.08205 41.8605 8.69922 41.5655 9.19884 41.5655ZM42.9965 41.8605C43.5549 41.8605 44.2014 42.0965 44.5247 42.4504C44.8774 42.8044 45.1125 43.4238 45.1125 44.0138C45.1125 44.7807 44.7598 45.3116 42.9671 47.111C41.2919 48.7628 40.616 49.2348 39.9694 49.2348C39.4992 49.2643 38.7938 49.0283 38.4118 48.7333C37.9415 48.3794 37.6966 47.8877 37.677 47.2585C37.6476 46.4325 37.9709 45.9606 39.8224 44.0728C41.674 42.2144 42.1736 41.8605 42.9965 41.8605ZM25.8625 46.6095C27.0087 46.58 28.7133 46.7865 29.6832 47.052C30.653 47.288 32.1225 47.8779 32.916 48.3499C33.7389 48.8218 35.0614 49.8542 35.8549 50.6506C36.6778 51.4471 37.7652 52.8924 38.2648 53.8363C38.7938 54.8097 39.411 56.3731 39.6755 57.3465C39.94 58.3199 40.1457 59.8538 40.1457 60.7387C40.1457 61.6236 39.94 63.1279 39.7049 64.0718C39.4404 64.9863 38.9408 66.3726 38.5587 67.1691C38.1766 67.936 37.0892 69.4108 36.1194 70.4432C34.9144 71.7706 33.7976 72.5965 32.3282 73.3045C31.182 73.8944 29.3893 74.4843 28.2137 74.6613C26.6854 74.9268 25.598 74.9268 23.9522 74.6613C22.6003 74.4548 20.9839 73.9534 19.6908 73.3045C18.2801 72.626 17.1045 71.7116 15.8702 70.4432C14.9004 69.4108 13.813 67.9065 13.4309 67.0806C13.0194 66.2841 12.5492 64.9568 12.3141 64.1308C12.1084 63.3344 11.932 61.8006 11.932 60.7387C11.9027 59.6768 12.1084 58.0249 12.3729 57.0515C12.6374 56.0781 13.2546 54.5443 13.7542 53.6593C14.2832 52.7744 15.3706 51.3881 16.1935 50.5621C17.0164 49.7657 18.3683 48.7333 19.1324 48.2909C19.9259 47.8484 21.3072 47.288 22.1889 47.052C23.1 46.816 24.7458 46.6095 25.8625 46.6095ZM21.4542 52.1255C20.8076 52.45 19.7496 53.3054 19.0736 54.0133C18.3977 54.7212 17.5454 55.8716 17.1927 56.6091C16.7225 57.5235 16.4874 58.6444 16.3992 60.1487C16.2817 61.8891 16.3992 62.715 16.8694 63.9834C17.2221 64.9273 18.0744 66.2841 18.8679 67.1691C19.7202 68.113 20.9545 69.0864 21.895 69.5288C23.2763 70.2073 23.9229 70.3252 26.0095 70.3252C28.1843 70.2957 28.7427 70.1778 30.2415 69.4403C31.2114 68.9389 32.5045 67.9655 33.1805 67.228C33.827 66.4906 34.6499 65.3107 34.9732 64.5733C35.4141 63.5704 35.561 62.6265 35.561 60.7387C35.561 58.6149 35.4434 57.9954 34.7969 56.6091C34.356 55.7241 33.3568 54.3673 32.5927 53.6298C31.7404 52.8334 30.5061 52.037 29.4774 51.6535C28.3606 51.2209 27.1851 51.0144 25.9507 51.0341C24.9515 51.0341 23.7759 51.1521 23.3645 51.2701C22.953 51.3881 22.1007 51.7715 21.4542 52.1255ZM47.7575 58.4379C50.1675 58.4969 50.7552 58.6149 51.2843 59.1163C51.6663 59.4998 51.9014 60.0602 51.9014 60.6797C51.9014 61.2106 51.6369 61.8596 51.2843 62.2135C50.7846 62.7445 50.3144 62.8035 47.4637 62.8035C44.2896 62.8035 44.2308 62.8035 43.6431 62.007C43.3198 61.5351 43.0553 60.9451 43.0847 60.6502C43.114 60.3552 43.4961 59.7063 43.9957 59.2048C44.848 58.3199 44.848 58.3199 47.7575 58.4379ZM12.1965 72.2426C12.7843 72.2426 13.4603 72.4785 13.7542 72.7735C14.0775 73.0685 14.2832 73.7174 14.2832 74.3074C14.2832 75.2218 13.9893 75.6052 12.079 77.4931C10.4332 79.0564 9.63968 79.6169 9.05189 79.6169C8.61105 79.6169 7.9351 79.3514 7.58243 79.0269C7.20037 78.7024 6.90648 78.024 6.8477 77.4931C6.78892 76.6671 7.05342 76.2542 8.96372 74.3959C10.874 72.5375 11.3149 72.2426 12.1965 72.2426ZM39.7637 72.2426C40.3808 72.2721 41.0862 72.803 42.7026 74.3959C43.9369 75.6642 44.8774 76.8441 44.9656 77.3456C45.0831 77.965 44.9362 78.3485 44.2308 79.0269C43.5549 79.7054 43.1728 79.8823 42.5556 79.7643C42.0854 79.6464 40.8805 78.7319 39.6167 77.4636C38.0003 75.8412 37.5007 75.1333 37.5007 74.5138C37.5007 74.0419 37.824 73.393 38.206 72.98C38.6469 72.5375 39.264 72.2426 39.7637 72.2426ZM25.9801 77.847C26.2446 77.847 26.8324 78.1125 27.2732 78.437C28.0667 79.0269 28.0667 79.0859 28.0667 82.2716C28.0667 85.1328 28.008 85.5753 27.479 86.1062C27.1557 86.4602 26.5091 86.6962 25.9507 86.6962C25.3335 86.7257 24.7751 86.4897 24.3931 86.0767C23.8935 85.5458 23.8053 85.0443 23.8053 82.3601C23.8053 79.3514 23.8347 79.2629 24.6576 78.555C25.0984 78.1715 25.6862 77.847 25.9801 77.847Z" fill="#DACCCC"/>
</svg>
