<svg width="150" height="151" viewBox="0 0 150 151" fill="none" xmlns="http://www.w3.org/2000/svg">
<path fill-rule="evenodd" clip-rule="evenodd" d="M74.0628 0.00362157C77.9025 -0.0258757 79.9996 0.121611 82.5988 0.564069C84.5187 0.888539 87.3542 1.47848 88.8901 1.86195C90.426 2.27491 93.232 3.21882 95.0928 3.95625C96.9536 4.69368 99.3461 5.78508 100.409 6.37503C101.473 6.96497 103.393 8.11536 104.692 8.97078C105.992 9.79671 108.266 11.478 109.713 12.7169C111.161 13.9263 113.435 16.1386 114.735 17.643C116.034 19.1473 117.866 21.5071 118.811 22.923C119.756 24.3388 121.174 26.8166 121.971 28.439C122.739 30.0613 123.802 32.6571 124.304 34.1909C124.807 35.7248 125.427 37.9961 125.663 39.2055C125.929 40.4148 126.254 42.9516 126.372 44.8099C126.49 46.6683 126.49 49.4705 126.372 51.0044C126.254 52.5382 126.077 54.308 125.988 54.9275C125.84 55.8124 125.899 56.0484 126.313 56.1959C126.608 56.2844 127.76 56.8153 128.912 57.3758C130.064 57.9067 131.748 58.9686 132.663 59.706C133.609 60.4435 134.997 61.8003 135.735 62.7443C136.474 63.6587 137.507 65.281 138.069 66.3429C138.6 67.4048 139.25 68.9977 139.486 69.8826C139.723 70.7675 140.018 71.8294 140.077 72.2424C140.195 72.8323 140.579 73.0978 141.82 73.5107C142.676 73.8057 144.094 74.5432 144.98 75.1331C145.866 75.723 146.93 76.6965 147.402 77.2569C147.845 77.8174 148.584 79.0857 149.027 80.0591C149.617 81.3275 149.883 82.4484 149.972 84.0413C150.06 85.5751 149.942 86.7845 149.588 88.0234C149.322 88.9968 148.731 90.3832 148.259 91.1206C147.816 91.858 146.841 92.9789 146.132 93.5984C145.453 94.2473 144.005 95.1912 141.022 96.5776L104.249 96.7251L102.211 99.4683C100.498 101.769 99.4642 103.745 95.5654 112.211C93.0252 117.727 90.9577 122.329 90.9577 122.476C90.9577 122.594 91.7256 122.712 92.6413 122.771C93.8227 122.83 94.6498 123.066 95.2996 123.509C95.8312 123.863 96.5106 124.6 96.7764 125.131C97.1604 125.839 97.3081 126.753 97.3081 128.73C97.3081 130.912 97.1899 131.561 96.6878 132.417C96.3038 133.066 95.4472 133.774 92.8776 135.101L91.3712 140.764C90.5442 143.891 89.6581 146.841 89.3922 147.313C89.156 147.785 88.5652 148.552 88.0926 148.965C87.6496 149.407 86.7044 150.027 85.9955 150.381C84.8141 150.971 84.3415 151 74.4172 151C64.4929 151 64.0498 150.971 62.957 150.381C62.3663 150.056 61.362 149.289 60.7417 148.699C60.1215 148.08 59.4421 147.077 59.2058 146.428C58.9696 145.779 58.1425 142.888 57.3746 139.998C55.9864 134.865 55.9568 134.777 55.0707 134.57C54.5686 134.482 53.6825 133.862 53.0622 133.243C52.442 132.623 51.8808 131.709 51.7922 131.178C51.7035 130.647 51.674 129.172 51.7331 127.933C51.7922 126.222 51.9694 125.485 52.442 124.836C52.7669 124.393 53.5053 123.715 54.0665 123.332C54.7754 122.86 55.4842 122.683 56.4589 122.683C57.4041 122.683 57.8767 122.565 57.8767 122.329C57.8767 122.122 55.8387 117.491 53.3576 112.064C48.9566 102.477 48.7204 102.064 45.5895 97.7575C43.7877 95.3387 41.2181 91.7401 39.8594 89.7932C38.5007 87.8464 36.3445 84.6017 35.0744 82.5664C33.7748 80.5016 32.7411 78.5548 32.7411 78.1418C32.7411 77.7289 33.066 77.1094 33.4204 76.726C33.9225 76.2245 34.3656 76.077 35.1335 76.136C36.0196 76.2245 36.315 76.4605 37.2306 77.8468C37.8214 78.7318 39.6822 81.534 41.3362 84.0413C43.0198 86.5485 46.1507 91.0616 48.3364 94.0703C50.5516 97.079 52.7964 100.029 53.4167 100.678C54.0074 101.297 54.9526 102.094 55.5138 102.477C56.075 102.831 57.1974 103.332 58.0244 103.627C58.9991 103.952 60.2101 104.099 63.6659 103.952L60.5941 96.7251C58.9105 92.743 56.4294 86.7845 55.1003 83.4513C53.7416 80.1181 52.1466 75.959 50.3449 71.033L30.4077 71.0625C12.9515 71.0625 10.2637 71.0035 8.84595 70.5905C7.95985 70.325 6.74885 69.8531 6.18765 69.5286C5.62646 69.1747 4.50407 68.2897 3.73612 67.5523C2.96817 66.8149 1.99346 65.6645 1.63902 65.0155C1.25504 64.3666 0.693847 63.0392 0.428018 62.0658C0.0735788 60.8269 -0.0445676 59.5881 0.0145056 57.9362C0.132652 55.9894 0.339408 55.193 1.16643 53.5116C1.69809 52.3907 2.76141 50.8274 3.49982 50.0899C4.23824 49.3525 5.50831 48.4086 6.33534 47.9956C7.13282 47.5827 8.37336 47.0517 9.0527 46.8452C10.1751 46.4618 10.2932 46.3143 10.4705 45.2524C10.5591 44.6035 10.9135 43.2761 11.2384 42.3027C11.5633 41.3293 12.3903 39.5889 13.0401 38.468C13.7195 37.3471 15.0782 35.5478 16.0529 34.5154C17.0571 33.483 18.7998 32.0081 19.9222 31.2707C21.0446 30.5038 22.9349 29.5599 24.0573 29.1174C25.1797 28.7044 27.1291 28.203 28.3401 27.9965C29.6692 27.7605 31.5891 27.7015 33.2136 27.79C34.6905 27.8785 36.8171 28.262 37.9395 28.6159C39.0619 28.9404 40.8636 29.6778 41.9269 30.2383C42.9903 30.7987 44.6738 31.8901 45.6781 32.7161C47.4503 34.1024 47.5389 34.1614 47.6866 33.542C47.7456 33.1585 48.1296 31.4772 48.5431 29.7663C48.9271 28.0555 49.6951 25.4007 50.1972 23.8669C50.6993 22.333 51.7922 19.6783 52.6192 17.9674C53.4167 16.2566 54.5686 14.0738 55.1593 13.1004C55.7501 12.127 57.0792 10.2982 58.0835 9.05927C59.5898 7.17145 59.8261 6.75849 59.3535 6.75849C59.0286 6.75849 57.2564 7.34843 55.4252 8.08587C53.6234 8.8233 51.0537 10.0327 49.7541 10.7701C48.4545 11.537 46.3279 12.8939 45.0283 13.8083C43.7287 14.7227 40.9818 17.1415 38.8847 19.2358C36.8171 21.3006 34.9268 22.982 34.6905 22.982C34.4542 22.982 33.9225 22.805 33.509 22.628C33.0955 22.4215 32.6229 21.9201 32.4457 21.5071C32.2389 21.0057 32.2389 20.5042 32.4752 19.8848C32.682 19.4128 34.4246 17.407 36.4036 15.4602C38.3825 13.5134 41.2771 11.0356 42.813 9.91469C44.3489 8.8233 47.4798 7.02396 49.7541 5.87357C52.0285 4.75268 55.0116 3.4548 56.3999 2.95335C57.7881 2.48139 60.5055 1.77346 62.4549 1.36049C64.4043 0.947533 66.6786 0.475577 67.4761 0.328091C68.2736 0.180605 71.2568 0.0331188 74.0628 0.00362157ZM68.2145 6.05056C67.4761 6.43402 66.1174 7.34843 65.1722 8.08587C64.2566 8.8233 62.7502 10.2982 61.8346 11.3896C60.919 12.5105 59.5307 14.5163 58.7037 15.9026C57.8767 17.289 56.6952 19.6193 56.0454 21.0647C55.3956 22.5395 54.4209 25.2533 53.8597 27.1116C53.2985 28.9699 52.501 32.3031 52.1171 34.4859C51.7035 36.6687 51.4082 38.468 51.4673 38.4975C51.4968 38.527 52.2057 38.704 53.0032 38.881C53.8302 39.0875 55.3956 39.7364 56.518 40.3264C57.6699 40.9163 59.2649 42.0962 60.0919 42.8926C60.919 43.7185 61.9232 44.8099 62.3367 45.3704C62.957 46.2258 63.2819 46.4028 64.8178 46.6093C65.7925 46.7568 67.417 47.2582 68.4508 47.7597C69.455 48.2316 70.9614 49.323 71.7589 50.1194C72.6155 50.9749 73.6492 52.4497 74.2104 53.6001C75.0965 55.4584 75.1556 55.7829 75.1556 58.7031C75.1556 61.6824 75.0965 61.8888 74.0628 64.0126C73.3243 65.517 72.4678 66.6969 71.2568 67.8178C70.1639 68.8797 68.8938 69.7056 67.7715 70.1776C66.1469 70.8265 65.5267 70.8855 60.5941 70.974C57.6404 71.033 55.2184 71.1215 55.2184 71.21C55.2184 71.2985 55.6319 72.5078 56.134 73.9532C56.6362 75.3691 57.8176 78.4368 58.7628 80.7966C59.708 83.1563 61.9823 88.6428 63.8431 93.0379C65.7039 97.433 67.5056 101.681 67.8305 102.477L68.3917 103.952L80.6199 104.099C81.8013 101.002 83.9575 95.8697 86.1432 90.6781C88.3585 85.4866 90.7805 79.5872 91.5484 77.5519C92.3164 75.5166 93.4092 72.4193 93.9999 70.62C94.5611 68.8207 95.4472 65.7825 95.9494 63.8357C96.422 61.8888 97.0718 59.0276 97.3376 57.4937C97.7511 55.3404 97.8692 53.0987 97.8988 47.7597C97.8988 42.4207 97.7806 39.9134 97.3376 36.8457C96.8059 33.247 96.8059 32.8046 97.1899 32.1261C97.4557 31.7132 97.9874 31.3002 98.3714 31.2117C98.7553 31.1232 99.3756 31.1527 99.7596 31.3002C100.114 31.4182 100.587 31.8311 100.823 32.2146C101.059 32.5686 101.502 34.3974 101.768 36.2557C102.182 38.881 102.329 41.4177 102.329 47.3172C102.329 54.1016 102.241 55.3994 101.65 58.5261C101.266 60.473 100.646 63.3932 100.232 65.0155C99.8187 66.6379 98.8735 69.8236 98.1351 72.0949C97.3967 74.3662 95.9789 78.3483 94.9451 80.9441C93.9409 83.5398 91.6075 89.1738 89.7762 93.4804C87.9449 97.787 86.2023 101.917 85.9069 102.713L85.3457 104.099C90.1307 103.952 90.7805 103.804 92.4345 103.008C93.4978 102.477 94.827 101.563 95.4177 100.943C96.0084 100.324 97.9874 97.7575 99.8187 95.2502C101.679 92.743 104.81 88.2889 106.789 85.3686C108.739 82.4484 111.308 78.4663 112.46 76.5195C113.612 74.5727 115.414 71.1805 116.477 68.9977C117.541 66.8149 118.988 63.2162 119.726 61.0334C120.465 58.8506 121.262 55.8419 121.528 54.3965C121.823 52.8037 122.001 50.1194 122.001 47.7597C122.001 45.4294 121.794 42.6861 121.528 41.1228C121.262 39.6774 120.612 37.1406 120.081 35.5183C119.52 33.896 118.515 31.4477 117.836 30.0613C117.157 28.6749 115.887 26.4921 115.03 25.1943C114.144 23.8964 112.549 21.8316 111.486 20.6222C110.393 19.4128 108.561 17.584 107.38 16.5516C106.228 15.5192 104.072 13.8673 102.625 12.8939C101.177 11.9205 98.6963 10.4751 97.1604 9.70821C95.6245 8.94129 93.2025 7.87938 91.7847 7.37793C90.3374 6.87648 89.1855 6.55201 89.1855 6.6995C89.215 6.81748 89.9239 7.7614 90.7805 8.8233C91.6666 9.8852 92.8185 11.478 93.4092 12.363C93.9704 13.2479 95.0928 15.3127 95.9198 16.935C96.7173 18.5574 97.6329 20.5632 97.9283 21.4186C98.3714 22.5985 98.4304 23.1295 98.1941 23.7784C98.0169 24.2209 97.4853 24.7813 97.0127 24.9878C96.2743 25.3418 95.9789 25.3418 95.2996 24.9878C94.6498 24.6928 94.2067 23.9849 93.3206 21.8021C92.6708 20.2682 91.5484 17.9379 90.81 16.6401C90.0716 15.3422 88.6834 13.3069 87.7677 12.0975C86.8521 10.8881 85.2276 9.17726 84.1643 8.32184C83.1009 7.43693 81.4469 6.34553 80.4722 5.87357C79.4975 5.43111 77.9911 4.90016 77.1641 4.72318C76.3075 4.5462 74.9784 4.39871 74.2104 4.42821C73.4129 4.42821 72.0543 4.63469 71.1682 4.87067C70.2821 5.10664 68.9529 5.63759 68.2145 6.05056ZM23.4666 34.2794C22.4919 34.7809 20.7787 36.1377 19.5973 37.2881C18.15 38.7335 17.2048 40.0019 16.4369 41.5652C15.8166 42.7746 15.1372 44.7214 14.901 45.8423C14.6647 46.9927 14.4579 48.2611 14.4579 48.7331C14.4579 49.1755 14.2216 49.7655 13.9558 50.0604C13.6309 50.3849 12.7448 50.7094 11.7996 50.8274C10.9135 50.9749 9.64344 51.2993 8.99363 51.5943C8.34383 51.8598 7.31004 52.6267 6.68978 53.2461C6.06951 53.8951 5.36063 54.8685 5.0948 55.4289C4.82897 55.9894 4.53361 57.3168 4.47453 58.3787C4.38592 59.765 4.50407 60.6794 4.88804 61.6234C5.18341 62.3608 5.89229 63.4522 6.45348 64.1011C7.04422 64.7206 8.04846 65.517 8.69827 65.871C9.87973 66.4904 9.96834 66.4904 37.2011 66.5789C62.5435 66.6379 64.611 66.6084 65.8516 66.1364C66.59 65.871 67.6238 65.222 68.185 64.7206C68.7166 64.2486 69.5141 63.2457 69.9572 62.5083C70.607 61.3874 70.7251 60.8269 70.7251 58.8211C70.7251 57.1988 70.5774 56.1369 70.223 55.4289C69.9276 54.8685 69.2188 53.8656 68.5985 53.2461C67.9782 52.5972 66.8854 51.8303 66.1469 51.5058C65.3495 51.1518 64.1385 50.9454 63.0456 50.9454C62.0709 50.9454 61.0371 50.8274 60.7713 50.6799C60.4759 50.5324 59.767 49.677 59.2058 48.7921C58.6446 47.9071 57.6109 46.6388 56.9315 45.9603C56.2226 45.3114 55.0116 44.4265 54.1846 44.043C53.3871 43.6595 51.6445 43.1286 50.3449 42.8926C49.0453 42.6566 47.9524 42.4796 47.9229 42.4502C47.8638 42.4502 47.2435 41.5652 46.5346 40.4738C45.8258 39.3529 44.6148 37.8191 43.8173 37.0522C43.0198 36.2557 41.6316 35.1938 40.7455 34.6334C39.8594 34.1024 38.2644 33.365 37.2011 33.011C35.931 32.5686 34.336 32.3031 32.4752 32.2441C30.2895 32.1556 29.1671 32.2441 27.454 32.7161C26.243 33.07 24.4413 33.7485 23.4666 34.2794ZM121.764 68.1128C121.026 69.8236 119.844 72.3309 119.106 73.7172C118.368 75.1036 116.832 77.7584 115.739 79.6167C114.646 81.475 112.342 85.0737 110.629 87.5809L107.557 92.153C136.828 92.3005 139.457 92.2415 140.579 91.858C141.318 91.6221 142.41 91.0026 143.06 90.4717C143.68 89.9407 144.537 88.7608 144.951 87.8759C145.6 86.4895 145.689 85.9881 145.541 84.3362C145.453 83.2743 145.187 82.006 144.951 81.534C144.685 81.062 144.035 80.2066 143.503 79.6462C142.942 79.0857 141.908 78.3778 141.17 78.0533C140.431 77.7289 139.191 77.4044 138.423 77.2864C137.626 77.1979 136.798 76.9029 136.562 76.667C136.326 76.431 136.031 75.3101 135.883 74.1597C135.706 73.0388 135.292 71.2395 134.908 70.1776C134.524 69.1157 133.609 67.4048 132.87 66.3429C132.132 65.281 130.803 63.8651 129.916 63.2162C129.03 62.5378 127.613 61.6234 126.756 61.2104C125.929 60.7974 125.102 60.4435 124.954 60.4435C124.807 60.4435 124.334 61.4759 123.891 62.7443C123.448 63.9831 122.503 66.4019 121.764 68.1128ZM59.5603 115.013C61.3325 118.819 62.8684 122.122 62.9865 122.329C63.1342 122.594 65.763 122.683 74.4763 122.683L85.7888 122.712C91.1054 111.385 92.6117 108.052 92.6117 107.993C92.5822 107.934 91.8438 108.052 90.9577 108.229C89.8353 108.465 84.4892 108.524 73.5311 108.465C64.8473 108.406 57.4632 108.229 57.1087 108.111C56.7543 107.964 56.4589 107.905 56.4294 107.964C56.3999 108.023 57.8176 111.208 59.5603 115.013ZM56.1045 130.352L92.8776 130.204V127.255L56.1045 127.107V130.352ZM62.1595 140.528C63.1933 144.275 63.6068 145.366 64.1975 145.897C64.9655 146.575 65.0541 146.575 74.2695 146.575C79.7929 146.575 83.8689 146.457 84.3119 146.28C84.7255 146.103 85.2276 145.602 85.4639 145.16C85.6706 144.717 86.409 142.298 87.0884 139.791C87.7382 137.284 88.2994 135.101 88.2994 134.983C88.2994 134.865 82.1262 134.777 74.5649 134.777C61.6869 134.777 60.8304 134.806 60.8304 135.278C60.8599 135.573 61.4506 137.933 62.1595 140.528Z" fill="#DACCCC"/>
</svg>
