<svg width="151" height="151" viewBox="0 0 151 151" fill="none" xmlns="http://www.w3.org/2000/svg">
<path fill-rule="evenodd" clip-rule="evenodd" d="M73.8778 2.68344C76.5026 2.65394 78.862 2.86039 81.3983 3.27328C83.4333 3.62719 86.353 4.27601 87.8866 4.7184C89.4202 5.19027 91.8091 6.04555 93.1952 6.6059C94.5813 7.19574 96.9112 8.34594 98.3563 9.2307C99.8014 10.086 102.013 11.5311 103.223 12.4454C104.432 13.3596 106.909 15.601 108.679 17.4295C110.566 19.376 112.778 22.0303 113.899 23.7409C114.99 25.3629 116.524 28.0172 117.32 29.6393C118.116 31.2614 118.942 33.1194 119.148 33.7682C119.443 34.653 120.475 35.8621 123.277 38.6344C125.342 40.6694 127.908 43.4416 128.999 44.8278C130.621 46.9217 130.945 47.5116 130.945 48.4553C130.945 49.2516 130.709 49.7825 130.09 50.4313C129.412 51.1096 128.969 51.3161 128.084 51.3161C127.141 51.2866 126.757 51.0801 125.784 50.0479C125.135 49.3401 123.484 47.541 122.098 46.0075C120.741 44.4739 119.178 42.8518 117.674 41.5836L116.877 42.5569C116.435 43.0582 115.255 44.3559 114.282 45.3881C113.309 46.4203 111.451 48.1014 110.153 49.1631C108.856 50.1953 106.585 51.8174 105.14 52.7317C103.694 53.6459 101.099 55.0026 99.3886 55.7694C97.678 56.5362 94.8468 57.5684 93.0477 58.0698C91.2487 58.5711 88.3585 59.1905 86.5595 59.4559C84.1116 59.8393 82.0766 59.8983 78.1542 59.7803C74.4971 59.6623 72.1378 59.4264 70.0438 58.984C68.4218 58.6301 65.8854 57.9518 64.4403 57.4504C62.9952 56.9786 60.4589 55.9168 58.8368 55.15C57.2147 54.3832 54.8848 53.0856 53.6757 52.2893C52.4665 51.493 49.9891 49.6645 48.1901 48.1899C46.3911 46.7448 43.9432 45.0047 42.7341 44.3264C41.5249 43.6186 39.2835 42.6159 37.7499 42.0555C36.2163 41.5246 33.8274 40.8463 32.4413 40.5514C31.0552 40.286 29.6395 39.8731 29.2856 39.6371C28.9022 39.4012 28.4598 38.7229 28.2829 38.1036C27.988 37.1303 28.0765 36.6879 29.0497 34.0631C29.6395 32.4411 30.7307 29.9932 31.4386 28.6071C32.1759 27.2209 33.385 25.1565 34.1813 24.0358C34.9776 22.8561 35.9509 21.7944 36.4522 21.5584C36.9241 21.352 37.6909 21.234 38.1923 21.352C38.6641 21.4405 39.313 21.7354 39.5784 22.0303C39.8733 22.3252 40.2272 22.9446 40.3747 23.4459C40.5516 24.0358 40.5222 24.6256 40.2567 25.2155C40.0798 25.7168 39.313 27.044 38.5757 28.1647C37.8384 29.2854 36.8356 31.0254 36.3638 31.9987C35.8624 32.9719 35.3905 34.0631 35.2725 34.417C35.1251 35.0069 35.2431 35.1248 36.3638 35.3903C37.0421 35.5672 38.3987 35.9801 39.372 36.334C40.3452 36.6584 42.3507 37.5432 43.7958 38.251C45.2409 38.9883 47.1874 40.0795 48.0722 40.6989C48.9569 41.2887 50.8149 42.7338 52.2011 43.8545C53.5872 45.0047 55.6222 46.5088 56.7723 47.2461C57.9225 47.9834 59.7511 49.0452 60.9013 49.635C62.0514 50.1954 64.2929 51.1391 65.9149 51.6995C67.537 52.2598 69.9848 52.9676 71.371 53.2625C73.347 53.7049 75.1165 53.8229 79.7763 53.8229C84.436 53.8229 86.2055 53.7049 88.1815 53.2625C89.5677 52.9676 92.0155 52.2598 93.6376 51.6995C95.2597 51.1391 97.796 50.0479 99.2411 49.3106C100.686 48.5438 102.898 47.2166 104.107 46.3319C105.316 45.4471 107.086 44.061 108.059 43.2352C109.003 42.4094 110.507 40.9053 111.362 39.8731C112.247 38.8703 112.955 37.9266 112.955 37.7496C112.955 37.5727 111.657 36.6289 110.094 35.6262C108.502 34.6235 106.083 33.2373 104.697 32.5295C103.311 31.8512 101.571 31.0254 99.3886 30.0817L94.3159 34.2991C91.5141 36.5995 88.9778 38.6049 88.7124 38.7229C88.4175 38.8409 87.7686 38.9293 87.2968 38.9293C86.7069 38.9293 86.1171 38.6344 85.5272 38.0446C84.8489 37.3662 84.6425 36.8944 84.6425 35.9801C84.6425 35.0069 84.8194 34.6235 85.7632 33.7682C86.353 33.2373 88.152 31.7037 89.7446 30.3766C91.3077 29.0789 92.5169 27.9582 92.3989 27.8993C92.2514 27.8403 90.7768 27.5159 89.0663 27.162C87.3557 26.8375 84.1706 26.4246 81.9882 26.2477C79.7763 26.0412 76.6501 25.9823 74.91 26.1002C73.1995 26.1887 70.4272 26.4836 68.7167 26.7491C67.0061 26.985 64.3518 27.5159 62.8182 27.8993C61.2847 28.2827 59.5151 28.6071 58.9253 28.6071C58.0405 28.6071 57.6571 28.4301 57.0673 27.7223C56.5954 27.162 56.33 26.4836 56.33 25.8053C56.33 25.1565 56.5659 24.4782 57.0083 24.0063C57.4507 23.5049 58.4534 23.033 60.1639 22.5317C61.5501 22.1188 64.3223 21.5289 66.3573 21.2045C68.3923 20.8506 70.3388 20.5262 70.7222 20.4672C71.312 20.3493 71.2825 20.2608 70.0438 19.0811C68.8936 17.9899 68.7167 17.695 68.7167 16.6037C68.7167 15.601 68.8936 15.1586 69.572 14.4508C70.1913 13.8315 70.7222 13.5661 71.43 13.5661C71.9608 13.5661 72.6686 13.743 72.993 13.9789C73.3175 14.1854 75.1165 15.6895 80.3661 20.2903L83.4038 20.4672C85.0554 20.5557 88.1815 20.9981 90.305 21.411C92.4579 21.8239 96.0264 22.7676 98.2089 23.4754C100.391 24.2127 103.842 25.5694 105.877 26.5426C107.912 27.5159 109.593 28.2532 109.652 28.1647C109.681 28.0762 109.091 27.1325 108.325 26.0413C107.558 24.9205 105.936 23.0036 104.697 21.7059C103.488 20.4377 101.424 18.5797 100.126 17.577C98.8282 16.5743 97.2356 15.4241 96.5868 15.0112C95.938 14.5688 94.6108 13.8315 93.6376 13.3301C92.6643 12.8582 90.8653 12.062 89.6561 11.5606C88.447 11.0887 86.0581 10.3514 84.3475 9.90902C82.637 9.49613 79.8057 9.02426 78.0067 8.81781C76.2077 8.64086 73.4944 8.58187 71.9608 8.69984C70.4272 8.81781 68.0974 9.08324 66.7997 9.31918C65.502 9.52562 63.2311 10.0565 61.786 10.4989C60.3409 10.9118 58.7188 11.2657 58.247 11.2657C57.6571 11.2362 57.0968 10.9412 56.5659 10.3514C56.0056 9.73207 55.7401 9.11273 55.7401 8.40492C55.7401 7.66762 55.9761 7.10726 56.5659 6.51742C57.1263 5.92758 58.1585 5.42621 60.0165 4.86586C61.4616 4.42348 64.3223 3.74515 66.3573 3.39125C68.8641 2.91937 71.2825 2.71293 73.8778 2.68344ZM19.4647 50.6082C19.8776 50.6967 20.5264 50.9916 20.9393 51.2866C21.3522 51.5815 21.7946 52.2008 21.9421 52.6727C22.1485 53.351 21.9421 54.1768 20.9393 56.9196C20.261 58.7776 19.3763 61.5203 18.9929 62.9655C18.6095 64.4106 18.285 65.6787 18.285 65.7672C18.285 65.8557 19.2288 66.0916 20.4085 66.2981C21.5882 66.5045 23.6231 66.9764 24.9208 67.3598C26.2184 67.7432 28.3419 68.4805 29.6395 68.9819C30.9372 69.5127 33.0016 70.486 34.2108 71.1348C35.42 71.7836 37.6319 73.1403 39.077 74.143C40.6991 75.2342 43.2354 77.4166 45.5948 79.776C48.1606 82.3418 50.0481 84.5537 51.2868 86.4118C52.319 87.9454 53.8231 90.5407 54.6194 92.1627C55.4452 93.7848 56.6249 96.6455 57.2442 98.5036C57.8636 100.362 58.6598 103.488 58.9843 105.434C59.4561 107.971 59.6331 110.241 59.6331 113.545C59.6331 116.966 59.4856 119.089 58.9843 121.95C58.5419 124.516 58.3354 126.993 58.3354 129.47C58.3354 131.8 58.5124 134.012 58.8368 135.516C59.1022 136.814 59.7216 139.055 60.2229 140.53C61.0192 142.919 61.0782 143.273 60.6948 144.039C60.4884 144.511 59.987 145.131 59.5741 145.426C59.1612 145.721 57.6276 146.163 56.1825 146.428C54.7374 146.664 52.0831 146.959 50.2841 147.077C48.3966 147.166 45.5653 147.107 43.5009 146.871C41.5544 146.694 38.5167 146.163 36.7177 145.691C34.9186 145.249 32.0284 144.305 30.2294 143.597C28.4598 142.889 25.835 141.621 24.4194 140.825C23.0038 139.999 20.7624 138.554 19.4352 137.581C18.1081 136.607 15.8372 134.631 14.3626 133.157C12.888 131.682 10.794 129.293 9.70282 127.848C8.6411 126.403 7.07801 123.985 6.25223 122.54C5.42645 121.095 4.18778 118.499 3.50946 116.789C2.83114 115.078 1.91688 112.247 1.4745 110.448C1.00262 108.649 0.501253 105.759 0.294808 103.96C0.0883625 102.161 -0.000114076 99.0049 0.0883625 96.8815C0.176839 94.7875 0.442269 91.9858 0.707698 90.6881C0.943636 89.3905 1.50399 87.1196 1.91688 85.6745C2.32977 84.2293 3.24403 81.693 3.92235 80.0709C4.63016 78.4489 5.83934 76.001 6.63563 74.6444C7.46141 73.2877 8.995 71.0463 10.0567 69.6307C11.6493 67.5662 12.0622 66.77 12.3571 65.3248C12.5636 64.3516 13.0354 62.3461 13.4483 60.901C13.8612 59.4559 14.687 56.9196 15.2768 55.2975C15.8667 53.6754 16.604 52.0534 16.8989 51.67C17.1938 51.2866 17.7247 50.8442 18.0786 50.7262C18.4325 50.5787 19.0518 50.5198 19.4647 50.6082ZM17.2233 72.6684C17.1938 73.1698 17.0759 74.7034 16.9874 76.0895C16.9284 77.4756 16.9874 80.3953 17.1348 82.5778C17.2823 84.7602 17.4593 86.7657 17.5477 87.0016C17.6067 87.267 20.143 88.3877 23.8001 89.7444C28.4009 91.4844 30.1409 92.2807 30.7307 92.9295C31.3206 93.5194 31.5565 94.1092 31.5565 94.817C31.5565 95.4953 31.2911 96.1737 30.8192 96.734C30.2294 97.4123 29.846 97.6188 28.9612 97.6188C28.3419 97.6188 26.012 96.9405 23.5936 96.0262C21.2343 95.1414 19.2878 94.5221 19.2288 94.6106C19.1993 94.7285 19.6417 96.2032 20.202 97.9137C20.7919 99.6243 22.06 102.603 23.0038 104.549C23.9475 106.496 25.5401 109.357 26.5429 110.89C27.5751 112.424 28.9907 114.488 29.7575 115.462C30.4948 116.435 32.4118 118.588 33.9749 120.269C36.6587 123.041 36.8651 123.365 36.8651 124.457C36.8651 125.312 36.6587 125.843 36.1278 126.374C35.7149 126.787 35.0366 127.199 34.5647 127.288C34.1223 127.376 33.503 127.406 33.1786 127.317C32.8542 127.229 31.1436 125.636 29.3446 123.808C27.5751 121.979 25.5106 119.649 24.7733 118.647C24.036 117.644 23.3872 116.789 23.2987 116.789C23.2102 116.789 22.9743 117.497 22.7679 118.411C22.5024 119.59 22.178 120.21 21.5882 120.623C21.1163 121.006 20.3495 121.242 19.6712 121.213C18.8454 121.213 18.344 120.977 17.6952 120.328C17.2233 119.856 16.8104 119.148 16.8104 118.765C16.8104 118.411 17.1938 116.11 17.6952 113.692L18.58 109.268C16.2206 104.019 15.0999 101.158 14.5395 99.5358C13.9792 97.9137 13.2124 95.2594 12.829 93.6373C12.4456 92.0153 11.9147 89.184 11.6788 87.3555C11.4134 85.5565 11.2069 83.0496 11.2069 81.8405C11.2069 80.5723 11.0889 79.6286 10.912 79.6286C10.7645 79.6286 10.2042 80.5133 9.70282 81.6045C9.20145 82.7252 8.40516 84.7307 7.96278 86.1168C7.4909 87.503 6.90106 89.8328 6.60614 91.278C6.19324 93.2539 6.07528 95.2299 6.07528 99.0934C6.07528 103.193 6.22274 104.815 6.69461 107.056C7.04852 108.59 7.66785 110.92 8.11024 112.217C8.52313 113.515 9.40789 115.697 10.0567 117.084C10.7055 118.47 12.1212 120.918 13.2124 122.54C14.4216 124.398 16.368 126.728 18.403 128.763C20.5559 130.915 22.6499 132.685 24.4784 133.894C26.012 134.897 28.2829 136.224 29.4921 136.843C30.7013 137.463 32.9132 138.377 34.3583 138.878C35.8034 139.409 38.3397 140.117 39.9618 140.441C42.3507 140.972 43.9432 141.09 48.2786 141.09C51.2278 141.12 53.7052 141.061 53.8231 140.972C53.9116 140.884 53.7347 139.675 53.4102 138.23C53.0563 136.814 52.6729 134.16 52.5255 132.331C52.378 130.414 52.378 127.819 52.5255 126.079C52.6729 124.457 52.9089 122.392 53.0858 121.507C53.2628 120.623 53.5282 118.499 53.6757 116.789C53.8526 114.754 53.8526 112.483 53.6462 110.153C53.4692 108.206 52.9679 105.169 52.5255 103.37C52.0536 101.571 51.1393 98.7985 50.461 97.1764C49.7827 95.5543 48.603 93.195 47.8362 91.8973C47.0694 90.6291 45.6538 88.5942 44.6511 87.326C43.6483 86.0873 41.7903 84.0819 40.4927 82.8727C39.2245 81.6635 36.9831 79.835 35.5085 78.8618C34.0634 77.859 31.763 76.4729 30.3768 75.7946C28.9907 75.1162 26.5429 74.1135 24.9208 73.5532C23.2987 73.0223 20.9393 72.403 19.6417 72.167L17.3413 71.7246L17.2233 72.6684ZM136.224 64.0272C137.286 64.0272 137.581 64.2041 138.82 65.5018C139.586 66.3276 141.061 68.1561 142.064 69.5717C143.066 70.9873 144.689 73.6416 145.632 75.5291C146.606 77.3871 147.815 80.1004 148.316 81.575C148.817 83.0202 149.584 85.8219 149.968 87.7684C150.528 90.3342 150.764 92.6641 150.882 96.3211C151 99.6832 150.941 101.984 150.705 103.399C150.499 104.52 149.968 106.968 149.525 108.855C149.083 110.713 148.228 113.486 147.608 115.049C146.989 116.582 145.809 119.089 144.924 120.652C144.069 122.186 142.683 124.398 141.857 125.577C141.032 126.757 138.997 129.146 137.345 130.856C135.693 132.567 133.246 134.779 131.948 135.752C130.65 136.725 128.497 138.171 127.17 138.967C125.843 139.763 123.366 140.972 121.714 141.71C120.063 142.417 117.438 143.332 115.875 143.745C114.341 144.187 111.746 144.718 110.124 144.983C108.325 145.278 105.434 145.455 102.603 145.455C100.096 145.426 96.9702 145.249 95.6725 145.042C94.1095 144.777 93.0772 144.718 92.5759 144.924C92.1925 145.072 90.5114 145.573 88.8893 146.045C87.2673 146.517 84.3475 147.225 82.4011 147.638C80.4546 148.05 78.5081 148.375 78.0657 148.375C77.6233 148.375 76.886 148.139 76.4731 147.844C76.0307 147.579 75.4999 146.93 75.2934 146.458C75.087 145.956 74.9985 145.219 75.087 144.836C75.205 144.423 75.4999 143.833 75.7358 143.538C76.0012 143.243 76.4141 142.889 76.6501 142.771C76.9155 142.624 78.4196 142.299 80.0417 142.034C81.6637 141.769 84.2591 141.238 85.7927 140.825C87.3557 140.412 88.7124 139.999 88.8304 139.881C88.9483 139.763 88.5649 138.23 88.0046 136.489C87.4442 134.749 86.7069 131.771 86.3825 129.854C85.9696 127.465 85.7927 125.047 85.7927 121.979C85.7927 119.325 85.9696 116.376 86.235 114.606C86.5005 112.984 86.9134 110.861 87.1788 109.888C87.4147 108.914 88.0046 107.056 88.447 105.759C88.8893 104.461 89.8036 102.249 90.4524 100.892C91.1012 99.5063 92.5759 96.97 93.6966 95.2889C94.8468 93.5784 96.6753 91.1305 97.796 89.8623C98.9167 88.5942 100.952 86.5887 102.308 85.4385C103.694 84.2588 105.818 82.6367 107.027 81.811C108.266 80.9852 110.507 79.6875 112.041 78.8913C113.604 78.1245 116.258 76.9743 117.939 76.3254C119.65 75.6766 121.714 74.8213 122.51 74.4084C123.336 73.9955 124.988 72.9928 126.197 72.1965C127.436 71.3707 129.913 69.1883 131.712 67.3598C134.838 64.2041 135.074 64.0272 136.224 64.0272ZM129.441 77.1512C128.232 77.9475 126.256 79.0977 125.017 79.717C123.808 80.3364 121.685 81.2506 120.299 81.752C118.942 82.2534 116.73 83.1676 115.432 83.7575C114.135 84.3768 111.834 85.7334 110.271 86.7657C108.561 87.9159 106.172 89.9213 104.048 92.0153C101.689 94.3452 100.008 96.3506 98.6807 98.3856C97.619 100.008 96.2329 102.456 95.5841 103.842C94.9647 105.198 94.021 107.587 93.5491 109.15C93.0477 110.684 92.4284 113.191 92.163 114.754C91.868 116.435 91.6911 119.237 91.6911 121.832C91.6911 124.339 91.868 127.199 92.163 128.763C92.3989 130.208 93.0182 132.744 93.5196 134.366C93.9915 135.988 94.4929 137.404 94.6108 137.551C94.6993 137.669 96.2624 137.05 98.0319 136.136C99.8309 135.221 102.544 133.629 104.078 132.567C105.641 131.535 107.174 130.444 107.528 130.149L108.177 129.647C106.614 120.269 106.172 117.025 106.142 116.376C106.142 115.462 106.319 114.99 106.909 114.37C107.528 113.751 107.971 113.574 108.915 113.574C109.593 113.574 110.33 113.751 110.566 113.957C110.832 114.134 111.185 114.488 111.362 114.754C111.569 114.99 112.07 117.32 112.513 119.915C112.955 122.51 113.368 124.663 113.427 124.693C113.486 124.752 114.105 124.132 114.813 123.365C115.521 122.599 116.759 121.183 117.556 120.21C118.323 119.237 119.827 117.172 120.829 115.639C121.862 114.075 123.484 111.244 124.427 109.298C125.401 107.351 126.698 104.166 127.347 102.22C127.996 100.273 128.733 97.9137 128.999 96.97C129.323 95.7903 129.707 95.112 130.267 94.6696C130.709 94.3452 131.506 94.0797 132.036 94.0797C132.656 94.1092 133.334 94.4041 133.924 94.9055C134.661 95.5838 134.838 95.9377 134.809 96.911C134.809 97.5598 134.425 99.4178 133.953 101.04C133.452 102.662 132.567 105.228 131.977 106.791C131.358 108.324 130.827 109.74 130.768 109.947C130.68 110.241 130.945 110.212 131.889 109.888C132.567 109.622 133.511 109.416 133.953 109.445C134.396 109.445 135.015 109.563 135.34 109.74C135.664 109.888 136.136 110.418 136.372 110.92C136.637 111.392 136.814 112.129 136.814 112.542C136.814 112.925 136.46 113.692 136.018 114.164C135.369 114.901 134.307 115.373 130.768 116.553L126.344 118.027C123.779 121.773 121.98 124.103 120.682 125.666C119.384 127.199 117.349 129.382 116.17 130.503C114.96 131.623 112.984 133.334 111.746 134.307C110.537 135.28 108.413 136.814 107.027 137.728L104.52 139.38C106.349 139.527 108.207 139.35 109.829 139.085C111.451 138.79 114.046 138.171 115.58 137.699C117.143 137.197 119.532 136.283 120.888 135.634C122.274 134.985 124.722 133.599 126.344 132.508C128.232 131.269 130.503 129.382 132.567 127.288C134.543 125.312 136.549 122.953 137.699 121.242C138.702 119.679 139.97 117.556 140.501 116.523C141.032 115.462 141.946 113.338 142.506 111.805C143.096 110.241 143.863 107.587 144.187 105.906C144.541 104.196 144.895 101.276 145.013 99.4178C145.101 97.4713 145.013 94.6696 144.807 92.9295C144.63 91.219 144.128 88.5057 143.715 86.8836C143.302 85.2616 142.506 82.7842 141.946 81.4276C141.385 80.0414 140.501 78.1834 139.999 77.2987C139.498 76.3844 138.466 74.7034 137.728 73.5237C136.962 72.344 136.283 71.4002 136.224 71.4002C136.136 71.4002 135.074 72.3735 133.865 73.5532C132.626 74.7034 130.65 76.3254 129.441 77.1512ZM46.745 11.826C47.1284 11.826 47.8362 12.003 48.2786 12.2389C48.721 12.4454 49.2518 12.9762 49.4583 13.4186C49.6647 13.8315 49.8122 14.5393 49.8122 14.9817C49.8122 15.4241 49.5763 16.0729 49.3108 16.4268C49.0159 16.7807 48.485 17.1936 48.1311 17.4C47.7772 17.577 47.1284 17.7245 46.7155 17.7245C46.3321 17.7245 45.5653 17.3411 45.0345 16.8692C44.2382 16.1319 44.0612 15.778 44.0907 14.7752C44.0907 13.743 44.2382 13.3891 45.0345 12.6813C45.5653 12.2094 46.3321 11.826 46.745 11.826Z" fill="#DACCCC"/>
</svg>
