<svg width="120" height="151" viewBox="0 0 120 151" fill="none" xmlns="http://www.w3.org/2000/svg">
<path fill-rule="evenodd" clip-rule="evenodd" d="M57.0617 0C57.7963 0 58.2958 0.206513 58.8834 0.796551C59.2948 1.26858 63.0852 7.61149 67.287 14.8985C71.4593 22.2149 75.1322 28.6463 75.426 29.2069C75.7493 29.8559 75.8668 30.564 75.7493 31.1245C75.6611 31.626 75.2497 32.3341 74.809 32.7471C74.2801 33.2781 73.7218 33.4846 72.8697 33.4846C71.9295 33.4846 71.5475 33.3076 70.9305 32.5996C70.4897 32.0981 67.2282 26.6402 63.6729 20.4448C60.1175 14.2199 57.1205 9.14559 56.9735 9.14559C56.856 9.14559 52.7424 16.167 47.8061 24.7816C42.8697 33.3961 38.8443 40.5356 38.8443 40.7126C38.8443 40.8896 40.7248 44.2233 42.9873 48.1766C45.2791 52.1003 47.7179 56.5256 48.3937 57.9712C49.0989 59.4168 49.8923 61.5704 50.1861 62.6915C50.5975 64.2551 50.7444 65.7597 50.715 68.8869C50.6856 72.4566 50.5975 73.3712 49.9216 75.6133C49.4809 77.0294 48.7169 79.0061 48.2174 80.0091C47.7179 81.0417 46.7189 82.6643 46.0431 83.6379C45.3379 84.6114 43.9569 86.2045 42.9285 87.2076C41.9001 88.2107 40.1959 89.5677 39.1381 90.2463C38.0803 90.9248 36.2879 91.8689 35.1714 92.3114C34.0548 92.7834 32.0568 93.403 30.764 93.6685C29.4711 93.934 27.0323 94.1405 25.3281 94.1405C23.6239 94.1405 21.3026 93.9635 20.1861 93.7275C19.0695 93.4915 17.2772 92.9605 14.3095 91.7509L14.4858 95.8221C14.6033 98.0348 14.9265 100.926 15.191 102.224C15.4554 103.522 16.0137 105.646 16.4251 106.944C16.8364 108.242 17.6004 110.308 18.1293 111.517C18.6582 112.727 19.716 114.792 20.4799 116.09C21.2439 117.388 22.478 119.247 23.2125 120.22C23.9471 121.194 25.4456 122.905 26.5034 124.026C27.5612 125.118 29.4711 126.858 30.764 127.891C32.0568 128.894 33.7023 130.103 34.4368 130.546C35.1714 131.018 36.905 131.962 38.3448 132.67C39.7551 133.349 41.0186 133.939 41.1949 133.939C41.3712 133.939 41.4887 132.729 41.4887 130.9C41.5181 129.248 41.7826 126.386 42.0764 124.586C42.3996 122.757 43.1342 119.748 43.7218 117.919C44.3095 116.119 45.4848 113.169 46.3075 111.37C47.1596 109.57 48.5113 107.062 49.3046 105.764C50.0979 104.466 51.5377 102.342 52.5073 101.044C53.4476 99.7459 54.8286 98.0348 55.5632 97.2677C56.7679 95.9992 57.0617 95.8516 58.1489 95.8811C59.0597 95.8811 59.618 96.0877 60.0881 96.5597C60.4701 96.9137 61.0872 98.1233 61.4398 99.2739C61.8217 100.424 62.2037 101.428 62.3212 101.546C62.4094 101.664 63.4084 98.5068 64.5544 94.4946C65.7003 90.5118 66.8168 86.9716 67.0813 86.6176C67.3457 86.2635 68.7267 85.29 70.1665 84.4049C71.6063 83.5199 73.8981 82.0448 75.2791 81.1007C76.6601 80.1566 78.8345 78.534 80.1273 77.5015C81.4202 76.4394 83.7708 74.3448 85.3869 72.8402C86.9735 71.3061 88.7953 69.4474 90.5583 67.2643L86.8854 60.8329C84.2409 56.2306 83.2125 54.1655 83.2125 53.4574C83.2125 52.8084 83.477 52.2478 84.0646 51.6283C84.7404 50.9203 85.1812 50.7433 86.1214 50.7433C86.9735 50.7433 87.5318 50.9498 88.002 51.3923C88.3545 51.7758 89.9706 54.372 94.525 62.308L95.2595 61.3639C95.6709 60.8624 96.905 59.0038 97.9922 57.2927C99.1087 55.5521 101.048 52.0118 102.311 49.4157C103.575 46.8195 105.103 43.3678 105.69 41.7452C106.278 40.1226 106.954 38.5 107.189 38.1164C107.424 37.7624 108.041 37.3494 108.57 37.2314C109.07 37.0839 109.833 37.0544 110.215 37.1429C110.627 37.2314 111.185 37.5854 111.508 37.9099C111.802 38.2345 112.507 39.621 113.066 41.0076C113.624 42.3942 114.594 45.1084 115.24 47.0555C115.857 49.0026 116.709 51.9233 117.12 53.5459C117.502 55.1685 118.119 57.8827 118.443 59.5938C118.766 61.3049 119.236 64.6091 119.5 66.9693C119.794 69.5655 119.971 73.7547 120 77.59C120 81.0712 119.853 85.526 119.647 87.4731C119.383 90.2168 119.177 91.2198 118.678 91.8984C118.355 92.3704 116.092 95.1436 113.712 98.0053C111.332 100.896 109.452 103.316 109.598 103.404C109.716 103.463 111.068 103.434 112.595 103.345C115.24 103.168 115.416 103.198 116.21 103.876C116.68 104.289 117.091 105.027 117.209 105.617C117.356 106.472 117.15 107.121 115.916 109.452C115.122 110.986 113.712 113.464 112.831 114.91C111.92 116.355 110.421 118.627 109.452 119.925C108.511 121.223 106.454 123.731 104.927 125.501C103.428 127.271 101.048 129.749 99.7258 130.959C98.3741 132.198 95.9941 134.175 94.4368 135.355C92.8502 136.564 90.4701 138.216 89.0891 139.042C87.7081 139.868 85.2693 141.167 83.6533 141.934C82.0372 142.701 79.4515 143.704 77.9236 144.205C76.3957 144.707 73.7512 145.415 72.047 145.769C69.4613 146.329 68.0509 146.447 63.2321 146.447C58.3839 146.477 57.0029 146.359 54.1234 145.798C52.2723 145.415 49.4221 144.648 44.8678 143.143L42.0764 144.294C40.5485 144.943 37.4927 146.034 35.3183 146.772C33.144 147.48 29.9706 148.424 28.2664 148.837C26.5622 149.28 23.9177 149.899 22.3898 150.224C20.8619 150.519 18.8639 150.873 17.9824 150.961C16.905 151.06 16.1312 150.971 15.6611 150.696C15.2791 150.489 14.7796 149.958 14.5739 149.486C14.3389 149.044 14.1626 148.424 14.1626 148.099C14.1626 147.775 14.3389 147.155 14.5739 146.683C14.7796 146.241 15.3379 145.739 15.808 145.533C16.2782 145.326 17.9236 144.943 19.4515 144.707C20.9794 144.441 23.8883 143.822 25.9158 143.35C27.9432 142.878 31.6161 141.786 34.0548 140.931C36.523 140.075 38.5211 139.367 38.4623 139.367C38.4329 139.337 36.8168 138.511 34.8776 137.508C32.9089 136.505 29.9706 134.676 28.2664 133.378C26.5622 132.08 24.0353 129.867 22.6249 128.422C21.2439 127.006 19.1283 124.557 17.9824 123.023C16.7777 121.371 15.0735 118.509 13.8688 116.09C12.7228 113.818 11.43 110.75 10.9598 109.305C10.4897 107.859 9.78453 105.115 9.40255 103.257C8.84427 100.365 8.72674 98.9788 8.72674 88.1812L7.14006 86.4995C6.25857 85.585 5.02448 84.0214 4.37806 83.0478C3.70225 82.0743 2.762 80.3632 2.23311 79.2126C1.70421 78.062 0.999021 75.9379 0.646425 74.4923C0.205681 72.7222 0 70.8635 0 68.8869C0 67.2643 0.146915 65.1402 0.323213 64.1666C0.499511 63.1931 0.881489 61.659 1.17532 60.7739C1.49853 59.8888 2.14496 58.3547 2.64447 57.3812C3.11459 56.4076 7.90402 47.9701 13.2517 38.6475C18.6288 29.3249 23.3007 21.4479 23.6533 21.1529C24.0353 20.8283 24.7698 20.6218 25.475 20.6218C26.3859 20.6513 26.8266 20.8283 27.4143 21.4479C27.8257 21.9199 29.7356 25.0176 31.6748 28.4103C33.5847 31.7735 35.2302 34.5172 35.3183 34.5172C35.4065 34.5172 39.7551 27.0532 44.9853 17.9371C50.2155 8.79156 54.8286 1.03257 55.2693 0.678544C55.7395 0.265517 56.4153 0 57.0617 0ZM15.4554 46.613C10.9892 54.4015 7.28697 61.2164 6.87561 62.3965C6.28795 63.9896 6.11165 65.2287 5.99412 67.8543C5.90597 70.362 5.99412 71.7486 6.34672 73.1647C6.61117 74.2268 7.37512 76.2034 8.02155 77.59C9.02057 79.6256 9.72576 80.5697 11.7826 82.6053C13.7218 84.5524 14.8384 85.3785 16.6014 86.234C17.8355 86.8241 19.7453 87.5321 20.8619 87.7976C21.9491 88.0336 24.094 88.2402 25.6219 88.2402C27.1499 88.2402 29.2067 88.0336 30.1763 87.7681C31.1459 87.5321 33.0558 86.7651 34.4368 86.0865C36.3761 85.113 37.4339 84.3459 39.2262 82.5463C41.0186 80.7172 41.7532 79.6846 42.811 77.5015C43.5455 76.0264 44.3683 73.7842 44.6033 72.5747C44.9265 71.0701 45.0147 69.5065 44.9265 67.7068C44.8384 65.9367 44.5152 64.2551 43.9863 62.6915C43.428 60.9804 40.8129 56.1421 34.6719 45.4329C29.9706 37.2314 25.9451 30.2984 25.7689 30.0034C25.475 29.5314 25.3281 29.6494 24.3879 31.1835C23.8296 32.1276 19.8041 39.0605 15.4554 46.613ZM104.368 58.1187C103.281 59.9773 101.371 62.898 100.167 64.6091C98.9618 66.3203 96.905 68.9754 95.6121 70.5095C94.3487 72.0436 91.7042 74.8463 89.7943 76.7049C87.855 78.5635 85.1812 81.0122 83.8002 82.1038C82.4192 83.2248 79.7747 85.1425 77.9236 86.411C76.0725 87.6501 73.9569 89.0367 73.2223 89.4497L71.9001 90.2168C65.6121 112.314 65.0245 114.054 64.4074 114.526C63.9961 114.821 63.2027 115.087 62.6445 115.087C62.0862 115.087 61.2928 114.821 60.8815 114.526C60.3232 114.084 59.7943 112.845 58.6778 109.482C57.855 107.033 57.1205 105.027 56.9735 105.027C56.856 105.027 56.0627 106.118 55.1812 107.446C54.2997 108.803 52.9481 111.222 52.1254 112.845C51.332 114.467 50.3036 116.798 49.8923 118.008C49.4515 119.217 48.8345 121.223 48.5406 122.433C48.2468 123.642 47.8355 125.56 47.6592 126.711C47.4829 127.861 47.3066 130.192 47.2772 131.932C47.2478 133.644 47.2772 135.148 47.3653 135.237C47.4535 135.325 48.6876 134.765 50.1567 133.998C51.5965 133.201 54.1822 131.726 55.8276 130.664C57.5024 129.631 60.6464 127.448 62.7914 125.826C64.9657 124.203 68.4329 121.341 70.4897 119.453C72.5465 117.595 75.5142 114.674 77.0715 112.963C78.5994 111.281 80.8031 108.773 81.9491 107.387C83.0656 106 84.8286 103.758 85.857 102.372C86.856 100.985 88.6484 98.3888 89.8237 96.6187C90.9696 94.8191 92.6739 92.1049 93.5553 90.5708C94.4662 89.0367 95.9941 86.175 96.9638 84.2279C98.4917 81.2187 98.903 80.5992 99.7845 80.1566C100.637 79.7731 101.048 79.7141 101.871 79.9501C102.517 80.1271 103.105 80.5992 103.487 81.1892C103.81 81.7202 104.074 82.3693 104.074 82.6053C104.074 82.8413 103.31 84.6409 102.37 86.5881C101.401 88.5352 99.667 91.7804 98.4917 93.816C97.3164 95.8516 95.3183 99.0378 94.0842 100.896C92.8208 102.755 90.8521 105.558 89.7062 107.092C88.5309 108.626 86.2684 111.429 84.6817 113.287C83.095 115.146 79.8923 118.539 77.571 120.81C75.2791 123.111 71.9882 126.091 70.284 127.507C68.5798 128.894 65.9941 130.87 64.5544 131.932C63.0852 132.965 60.5289 134.676 58.8247 135.738C57.1205 136.83 55.0637 138.069 54.2703 138.541L52.8012 139.367C55.2987 139.957 57.3555 140.281 58.9716 140.459C60.6464 140.665 63.379 140.724 65.2889 140.636C67.1401 140.547 69.9902 140.193 71.6063 139.868C73.2223 139.544 75.7199 138.865 77.189 138.334C78.6288 137.833 81.097 136.771 82.6249 135.974C84.1528 135.207 86.5328 133.791 87.9138 132.877C89.2948 131.962 91.4104 130.369 92.6151 129.366C93.8198 128.333 96.1998 126.062 97.904 124.321C99.6082 122.551 101.988 119.837 103.193 118.303C104.368 116.768 106.19 114.202 107.218 112.609C108.217 111.045 109.04 109.688 108.981 109.6C108.952 109.511 107.395 109.57 105.544 109.718C102.87 109.924 101.959 109.895 101.195 109.57C100.578 109.305 100.108 108.803 99.7845 108.036C99.4319 107.21 99.4025 106.767 99.6376 106.118C99.8139 105.676 103.017 101.634 106.778 97.1202L113.595 88.9482C113.976 85.29 114.094 81.3662 114.094 77.885C114.094 73.8727 113.918 70.0375 113.624 67.4118C113.359 65.1402 112.831 61.6295 112.419 59.5938C112.037 57.5582 111.214 54.254 110.656 52.2183C110.069 50.1827 109.569 48.5011 109.54 48.4421C109.51 48.3831 108.776 49.7697 107.924 51.5398C107.071 53.2804 105.485 56.2601 104.368 58.1187ZM79.4221 39.2375C80.3036 39.2375 80.7738 39.444 81.4496 40.1226C82.1254 40.8011 82.331 41.2731 82.331 42.0992C82.331 42.7187 82.1254 43.5153 81.8609 43.8693C81.6259 44.2233 80.95 44.6364 80.3918 44.8134C79.569 45.0789 79.1871 45.0494 78.2762 44.6069C77.4829 44.2528 77.1009 43.8398 76.8658 43.0728C76.6895 42.5122 76.6014 41.7747 76.6601 41.4502C76.7189 41.1256 77.1009 40.5061 77.5122 40.0341C78.0999 39.444 78.57 39.2375 79.4221 39.2375Z" fill="#DACCCC"/>
</svg>
