<svg width="71" height="70" viewBox="0 0 71 70" fill="none" xmlns="http://www.w3.org/2000/svg">
<path fill-rule="evenodd" clip-rule="evenodd" d="M51.2243 0.0136719L70.2965 0L70.57 0.382812C70.734 0.587891 70.8571 0.888672 70.8434 1.06641C70.8434 1.23047 70.693 1.51758 70.1735 2.05078H61.0407C53.193 2.05078 51.7985 2.07812 51.0875 2.26953C50.6364 2.37891 49.9254 2.65234 49.5153 2.87109C49.1051 3.10352 48.4352 3.5957 48.0387 3.99219C47.6422 4.38867 47.1364 5.03125 46.9176 5.40039C46.7125 5.76953 46.4391 6.42578 46.3161 6.83594C46.193 7.27344 46.0973 8.08008 46.0973 8.75C46.0973 9.59766 46.193 10.1445 46.4118 10.8008C46.5895 11.293 46.9176 11.9629 47.15 12.3047C47.3825 12.6465 47.8063 13.1523 48.1071 13.4258C48.3942 13.6992 48.9957 14.1504 49.4469 14.4102C49.8981 14.6836 50.6774 14.998 51.1832 15.1074C51.9352 15.2715 53.3161 15.3125 58.361 15.3125C63.5426 15.3125 64.7594 15.3535 65.443 15.5176C65.8942 15.6406 66.6051 15.9004 67.0153 16.1055C67.4254 16.3105 68.1774 16.8711 68.6696 17.3633C69.2301 17.9102 69.736 18.5801 70.0094 19.1133C70.2418 19.5781 70.5289 20.3438 70.6383 20.8223C70.7477 21.2871 70.8434 22.0117 70.8434 22.4219C70.8434 22.832 70.7477 23.5566 70.6383 24.0352C70.5289 24.5 70.2829 25.1973 70.0914 25.5664C69.9 25.9492 69.2575 26.8516 68.6696 27.5898C68.068 28.3145 67.275 29.2852 66.195 30.5566L66.4 31.0762C66.5094 31.3496 66.6051 31.8691 66.6051 32.2383C66.6051 32.5938 66.4684 33.1543 66.318 33.4961C66.1539 33.8379 65.6891 34.4531 65.2789 34.8633C64.6774 35.4785 64.5407 35.6836 64.609 35.957C64.65 36.1484 66.0719 41.0703 67.7672 46.8945C69.4625 52.7188 70.8434 57.6133 70.8434 57.7637C70.8434 57.9141 70.775 58.2559 70.693 58.5156C70.5973 58.7754 70.3786 59.1719 70.1735 59.377C69.9821 59.5957 69.6266 59.8691 69.4079 59.9785C69.1891 60.1016 68.5329 60.252 67.9723 60.3203C67.234 60.4023 66.7145 60.5527 66.1403 60.8809C65.6891 61.1133 65.1422 61.5371 64.9098 61.8105C64.6774 62.084 64.3629 62.5352 64.2125 62.8223C63.9391 63.3281 63.9391 63.3418 64.1989 63.4922C64.3493 63.5742 64.7047 63.8613 65.0055 64.1211C65.3063 64.3809 65.6754 64.8457 65.8258 65.1465C66.0309 65.543 66.1129 65.9531 66.1129 66.582C66.1129 67.1973 66.0309 67.6348 65.8532 68.0176C65.7028 68.3184 65.3746 68.7559 65.1286 69.002C64.8961 69.248 64.4313 69.5762 64.1032 69.7266C63.5289 70 63.3102 70 1.39027 70L1.10316 69.6309C0.857068 69.3027 0.829725 69.125 0.898084 68.3594C0.952772 67.7988 1.13051 67.1562 1.39027 66.623C1.62269 66.1445 2.12855 65.4199 2.51137 64.9961C2.94887 64.5449 3.5641 64.0801 4.05629 63.834C4.50746 63.6152 4.93129 63.4375 5.01332 63.4375C5.08168 63.4375 5.71058 62.5078 6.40785 61.3594C7.09144 60.2109 8.13051 58.5977 8.7184 57.7637C9.30629 56.9297 10.3453 55.5488 11.0426 54.6875C11.7262 53.8262 12.9703 52.377 15.3219 49.834L14.693 49.2188C14.3512 48.877 13.9274 48.3027 13.7496 47.9199C13.5446 47.4824 13.4215 46.9902 13.4215 46.5527C13.4215 46.1016 13.5309 45.6367 13.7496 45.1855C13.9821 44.707 14.2828 44.3652 14.7477 44.0508C15.1032 43.8184 15.65 43.5723 15.9508 43.5312C16.2516 43.4902 16.7164 43.4902 16.9762 43.5449C17.236 43.5996 17.6325 43.7363 17.8649 43.8457C18.0836 43.9551 18.6578 44.4336 19.1227 44.8984C19.6696 45.4453 20.025 45.6914 20.1481 45.6367C20.2438 45.5684 21.1188 44.9395 22.1032 44.2285C23.0739 43.5176 24.7418 42.4238 25.7946 41.7812C26.8473 41.1523 28.5973 40.168 29.6911 39.6074C30.7848 39.0332 32.5075 38.2129 33.5192 37.7617C34.5309 37.3105 36.445 36.5449 37.7575 36.0527C39.07 35.5605 41.1891 34.8496 42.4743 34.4668C43.7594 34.0977 45.4274 33.6191 46.193 33.4277C46.9723 33.2363 47.7243 33.0859 47.8746 33.0859C48.025 33.0859 48.3121 33.25 48.5172 33.4688C48.8043 33.7695 48.859 33.9199 48.777 34.248C48.7223 34.4805 48.6129 34.7402 48.5172 34.8223C48.4215 34.918 47.2731 35.2734 45.9606 35.6152C44.6481 35.957 42.3102 36.668 40.7653 37.1738C39.2203 37.6934 37.0055 38.5137 35.8434 39.0059C34.6813 39.4844 32.7946 40.3457 31.6735 40.9199C30.5387 41.4805 28.8571 42.3828 27.9137 42.9297C26.9704 43.4766 25.4664 44.4199 24.5641 45.0352C23.6618 45.6504 22.3356 46.5938 21.6246 47.1543C20.9137 47.7148 19.7106 48.6992 18.9586 49.3555C18.2067 50.0117 16.7575 51.4062 15.7457 52.4453C14.734 53.498 13.3532 55.0293 12.6969 55.8496C12.0407 56.6836 11.0426 57.9961 10.4957 58.7891C9.93519 59.582 9.12855 60.8125 8.70472 61.5234C8.26722 62.2344 7.88441 62.9043 7.87074 63C7.82972 63.123 8.51332 63.1641 14.1051 63.1641L14.5153 63.5742C14.8434 63.9023 14.9118 64.0664 14.8434 64.3535C14.8024 64.5723 14.6793 64.832 14.57 64.9414C14.4059 65.1055 13.6403 65.1602 10.0309 65.2148C5.73793 65.2832 5.68324 65.2832 5.02699 65.625C4.65785 65.8164 4.11097 66.2402 3.82387 66.582C3.53676 66.9238 3.23597 67.3613 3.0309 67.9492H63.2145L63.7067 67.457C64.1715 67.0059 64.1989 66.9238 64.1168 66.459C64.0485 66.1855 63.8571 65.8164 63.3239 65.2832L40.3414 65.2148C17.5641 65.1465 17.359 65.1465 17.1676 64.873C17.0582 64.7227 16.9762 64.3945 16.9762 64.1484C16.9762 63.834 17.0719 63.6426 17.3453 63.4375C17.7282 63.1504 17.8102 63.1504 61.82 63.1641L61.9567 62.7129C62.025 62.4805 62.3942 61.8242 62.777 61.2773C63.1461 60.7441 63.8161 60.0195 64.2399 59.6777C64.6774 59.3359 65.4293 58.8984 65.9215 58.707C66.4137 58.5156 67.1793 58.3242 67.6305 58.2832C68.0817 58.2559 68.5465 58.1602 68.6559 58.1055C68.8336 57.9961 68.7926 57.7363 68.3414 56.1641C68.0543 55.166 66.5231 49.8887 64.9235 44.4336C62.1481 34.918 62.025 34.5078 61.5465 34.0156C61.2868 33.7422 60.8766 33.4688 60.6578 33.4141C60.4254 33.3594 59.3727 33.3867 58.2926 33.4688C57.2262 33.5645 55.2575 33.7969 53.9176 33.9883C51.5114 34.3301 51.4977 34.3438 51.1559 34.0703C50.9235 33.8926 50.8004 33.6602 50.7731 33.3184C50.7594 32.9219 50.8141 32.7578 51.0602 32.5664C51.2516 32.4297 52.0856 32.2109 53.1383 32.0195C54.1227 31.8555 55.5856 31.623 56.4196 31.5137C57.2399 31.4043 58.4157 31.3086 60.111 31.3086L60.8629 30.543C61.2731 30.1328 61.861 29.6543 62.1618 29.4902C62.5719 29.2715 62.9547 29.2031 64.6911 29.1895L66.2086 27.3438C67.0426 26.332 67.8766 25.2793 68.0407 25.0195C68.2047 24.7598 68.4508 24.1719 68.5875 23.7207C68.7516 23.1465 68.8063 22.6406 68.7516 22.0117C68.7106 21.4512 68.5465 20.8223 68.3004 20.3027C68.0954 19.8516 67.6168 19.1953 67.2614 18.8262C66.9059 18.4707 66.2496 18.0195 65.0329 17.4316L51.0875 17.2949L49.9254 16.8848C49.2828 16.6523 48.4215 16.2422 48.0114 15.9688C47.6012 15.6953 46.9176 15.1348 46.5075 14.7246C46.0973 14.3008 45.5368 13.6035 45.277 13.166C45.0172 12.7285 44.6481 11.9766 44.4704 11.4844C44.2243 10.8145 44.1286 10.2266 44.0875 9.0918C44.0328 7.98438 44.0739 7.3418 44.2516 6.63086C44.3746 6.09766 44.7301 5.18164 45.0446 4.58008C45.4274 3.86914 45.9332 3.18555 46.5075 2.59766C46.9996 2.10547 47.7653 1.49023 48.2164 1.23047C48.6539 0.970703 49.5153 0.587891 50.1168 0.382812L51.2243 0.0136719ZM62.3805 31.9238L63.8024 33.373C64.445 32.7305 64.568 32.4707 64.568 32.1562C64.568 31.8418 64.4586 31.6367 64.1852 31.4453C63.9801 31.2812 63.6657 31.1582 63.5016 31.1719C63.3375 31.1719 63.0094 31.3359 62.7907 31.541L62.3805 31.9238ZM15.4723 46.5664C15.4723 46.9355 15.6364 47.1953 16.1422 47.7559L16.8121 48.4668C18.0016 47.4688 18.3571 47.1133 18.3571 47.0312C18.3571 46.9629 18.0153 46.5938 17.6051 46.2109C17.1403 45.8008 16.7164 45.5273 16.525 45.5273C16.3473 45.5273 16.0328 45.6641 15.8278 45.8145C15.5407 46.0332 15.4586 46.2109 15.4723 46.5664ZM55.818 38.377C56.1461 38.418 56.6383 38.5684 56.9118 38.7051C57.1715 38.8281 57.5407 39.1152 57.7457 39.334C57.9371 39.5527 58.1969 39.9082 58.3063 40.127C58.4157 40.3594 59.1403 43.1211 59.9059 46.2793C61.027 50.873 61.3004 52.1855 61.2594 52.7871C61.2321 53.334 61.0953 53.7305 60.7946 54.2227C60.4801 54.7285 60.193 54.9883 59.6325 55.2754C58.9899 55.6035 58.6344 55.6719 57.0485 55.7812C56.0231 55.8633 51.32 56.1641 46.5895 56.4785C41.5993 56.8066 37.5661 57.0117 37.0192 56.957C36.3493 56.9023 35.7887 56.752 35.2008 56.4785C34.736 56.2461 34.0387 55.7676 33.6422 55.4121C33.2594 55.0566 32.7946 54.4824 32.5895 54.1406C32.3981 53.8125 32.1246 53.1836 31.9879 52.7461C31.8649 52.3086 31.7418 51.5703 31.7418 51.1055C31.7418 50.627 31.8649 49.8613 32.0153 49.3555C32.1657 48.877 32.5075 48.1523 32.7672 47.7559C33.0407 47.3594 33.5739 46.7852 33.9703 46.4707C34.3668 46.1562 36.1032 45.2129 37.8395 44.3652C39.5621 43.5176 41.9 42.4512 43.0348 42C44.1559 41.5488 45.9059 40.9062 46.9313 40.5645C47.943 40.2363 49.57 39.7305 50.5543 39.457C51.525 39.1973 52.9743 38.8145 53.7672 38.6367C54.7243 38.4043 55.3942 38.3223 55.818 38.377ZM48.3668 42.2598C47.3825 42.5742 45.8102 43.1211 44.8805 43.4902C43.9371 43.8457 42.3102 44.5156 41.2575 44.9805C40.2047 45.4453 38.5094 46.2656 37.4977 46.7852C36.4723 47.3184 35.4332 47.9199 35.1735 48.125C34.9 48.3438 34.5036 48.8359 34.2848 49.2461C34.025 49.7383 33.8746 50.2441 33.8336 50.791C33.7789 51.3652 33.8336 51.8438 34.0114 52.3633C34.1891 52.9102 34.4625 53.3203 34.9547 53.8125C35.4059 54.2773 35.8707 54.5918 36.3356 54.7422C36.7047 54.8652 37.2789 54.9746 37.5934 54.9746L38.1813 54.9609C38.236 51.9258 38.277 51.6523 38.5231 51.3242C38.6871 51.1055 39.0289 50.791 39.275 50.6133L39.7536 50.2988C50.0211 50.3809 50.1989 50.3945 50.568 50.668C50.7868 50.832 51.0739 51.1738 51.2243 51.4199C51.4157 51.748 51.5114 52.2266 51.5524 52.9785L51.6071 54.0723C52.5914 54.0176 54.1637 53.9082 55.7496 53.7988C58.4157 53.6211 58.6344 53.5801 58.9215 53.293C59.1129 53.1152 59.236 52.8145 59.236 52.5684C59.236 52.3496 58.6207 49.6426 57.8688 46.5527C56.9391 42.793 56.4196 40.8789 56.2555 40.7285C56.1188 40.5918 55.859 40.4551 55.6813 40.4141C55.4762 40.373 54.2321 40.6191 52.7418 41.002C51.3063 41.3711 49.3375 41.9316 48.3668 42.2598ZM40.2184 54.8926C41.7633 54.7422 43.7731 54.6055 45.7008 54.4824C47.6149 54.3594 49.2555 54.2363 49.3512 54.209C49.4606 54.168 49.5289 53.8398 49.5289 53.252V52.3633H40.2321L40.2184 54.8926Z" fill="#DACCCC"/>
</svg>
