<svg width="67" height="59" viewBox="0 0 67 59" fill="none" xmlns="http://www.w3.org/2000/svg">
<path fill-rule="evenodd" clip-rule="evenodd" d="M33.515 0.00110409C33.7761 -0.0119506 34.1155 0.0924873 34.2852 0.223035C34.4419 0.353582 41.8308 13.2386 50.708 28.852C60.1858 45.536 66.8698 57.4288 66.922 57.703C66.9873 58.0946 66.9351 58.2252 66.1909 59.0085H0.891218L0.473467 58.5777C0.120989 58.2252 0.0687701 58.0946 0.134044 57.703C0.186263 57.4288 6.87028 45.536 16.348 28.852C25.2252 13.2386 32.6011 0.353582 32.7578 0.223035C32.9145 0.105542 33.2539 0.00110409 33.515 0.00110409ZM6.66141 51.1756C6.64835 51.254 7.30109 51.3062 8.42379 51.3062C9.41595 51.3062 10.4473 51.3714 10.7084 51.4367C10.9825 51.515 11.2958 51.6978 11.4003 51.8675C11.5178 52.0242 11.6091 52.3897 11.6091 52.6769C11.6091 53.0686 11.5308 53.2774 11.2697 53.5255C10.9434 53.8518 10.9172 53.8518 7.99299 53.9171L5.04262 53.9824C3.94602 55.8492 3.67187 56.4236 3.72409 56.4628C3.78937 56.5019 17.2096 56.5281 33.5541 56.5281C57.2615 56.5281 63.2928 56.4889 63.2928 56.3714C63.2928 56.28 56.6349 44.4394 48.4887 30.0661C40.3557 15.6798 33.6455 3.91752 33.5802 3.91752C33.515 3.91752 27.4445 14.531 20.0817 27.4813C12.7188 40.4446 6.68752 51.0973 6.66141 51.1756ZM24.4811 28.2124C24.5725 28.1993 24.8075 28.2646 25.0033 28.3429C25.2122 28.4212 27.2095 30.3142 33.528 36.6196L37.6011 32.5465C39.964 30.1967 41.8569 28.4212 42.0789 28.3299C42.2878 28.2515 42.6141 28.2124 42.7969 28.2515C42.9796 28.2907 43.2669 28.4735 43.4496 28.6693C43.6977 28.9304 43.776 29.1262 43.7499 29.5439C43.7368 30.0792 43.6454 30.1836 35.3557 38.4473L39.5201 42.6248C42.2747 45.4054 43.6977 46.9198 43.7629 47.1678C43.8021 47.3767 43.7629 47.7031 43.6454 47.9772C43.5149 48.2818 43.2973 48.4994 42.9927 48.63C42.6402 48.7736 42.4444 48.7866 42.1703 48.6952C41.9744 48.6169 39.951 46.6848 33.528 40.2749L29.3766 44.4133C27.1051 46.6848 25.0816 48.6169 24.8727 48.6952C24.6117 48.7866 24.4158 48.7736 24.0634 48.63C23.7587 48.4994 23.5412 48.2818 23.4106 47.9772C23.2931 47.7031 23.254 47.3767 23.2931 47.1678C23.3584 46.9198 24.7814 45.4054 31.7004 38.4473L27.5098 34.2698C23.4237 30.1836 23.3192 30.0792 23.3062 29.557C23.2931 29.1915 23.3584 28.9043 23.5151 28.7215C23.6456 28.5518 23.8806 28.3821 24.0372 28.3168C24.1939 28.2646 24.4028 28.2124 24.4811 28.2124ZM14.2723 51.4367C14.7684 51.4367 14.912 51.502 15.1861 51.8284C15.395 52.0764 15.5125 52.3767 15.5125 52.6769C15.5125 52.9641 15.4081 53.2513 15.2122 53.4733C15.0295 53.6821 14.7423 53.8257 14.4029 53.878C13.9721 53.9302 13.8023 53.891 13.4499 53.6038C13.0843 53.3035 13.0321 53.1861 13.0321 52.6769C13.0452 52.22 13.1235 51.9981 13.3585 51.7631C13.6065 51.515 13.8023 51.4367 14.2723 51.4367Z" fill="#DACCCC"/>
</svg>
