<svg width="62" height="70" viewBox="0 0 62 70" fill="none" xmlns="http://www.w3.org/2000/svg">
<path fill-rule="evenodd" clip-rule="evenodd" d="M6.56055 0.0273438L55.5059 0L56.5996 0.382812C57.2012 0.587891 58.0625 1.01172 58.5 1.3125C58.9512 1.59961 59.5938 2.16016 59.9355 2.54297C60.2773 2.91211 60.7559 3.5957 61.002 4.04688C61.2344 4.48438 61.5625 5.31836 61.7129 5.87891C62 6.9043 62 6.98633 62 34.9316C62 62.7812 62 62.9727 61.7266 64.0527C61.5625 64.6543 61.248 65.5156 61.002 65.9531C60.7559 66.4043 60.2773 67.0879 59.9355 67.457C59.5938 67.8398 58.9512 68.4004 58.5 68.7012C58.0625 68.9883 57.1875 69.4121 55.4375 70H6.69727L5.60352 69.6172C5.00195 69.4121 4.14062 68.9883 3.70312 68.6875C3.25195 68.4004 2.58203 67.8125 2.21289 67.4023C1.84375 66.9922 1.35156 66.2949 1.14648 65.8574C0.927735 65.4336 0.626953 64.627 0.476562 64.0938C0.203125 63.1094 0.203125 62.6855 0.203125 35.0684C0.203125 8.03906 0.203125 7 0.462891 6.01562C0.599609 5.45508 0.900391 4.62109 1.11914 4.16992C1.35156 3.71875 1.84375 3.00781 2.21289 2.59766C2.58203 2.1875 3.25195 1.59961 3.70312 1.3125C4.14062 1.01172 4.97461 0.601562 5.53516 0.396484L6.56055 0.0273438ZM5.39844 2.55664C4.98828 2.76172 4.30469 3.26758 3.88086 3.67773C3.45703 4.11523 2.96484 4.78516 2.75977 5.23633C2.55469 5.67383 2.32227 6.49414 2.25391 7.08203C2.17188 7.65625 2.11719 8.94141 2.14453 9.91211L2.18555 11.6895H60.0176C60.0859 8.94141 60.0312 7.65625 59.9492 7.08203C59.8809 6.49414 59.6621 5.70117 59.4844 5.30469C59.293 4.9082 58.9102 4.30664 58.623 3.97852C58.3359 3.63672 57.7344 3.13086 57.2832 2.84375C56.7773 2.51562 56.1074 2.24219 55.5332 2.11914C54.7402 1.94141 51.4316 1.91406 31.0059 1.92773C17.8672 1.94141 7.10742 1.99609 6.76562 2.06445C6.42383 2.13281 5.80859 2.35156 5.39844 2.55664ZM2.11719 37.9121C2.11719 53.0059 2.17188 62.4941 2.25391 63.0684C2.33594 63.5742 2.55469 64.3398 2.75977 64.7773C2.96484 65.2148 3.45703 65.8848 3.88086 66.3223C4.30469 66.7324 4.98828 67.2383 5.39844 67.4434C5.80859 67.6484 6.49219 67.8672 6.90234 67.9492C7.39453 68.0449 15.6797 68.0859 31.1426 68.0859C51.4043 68.0859 54.7402 68.0586 55.5469 67.8809C56.1074 67.7578 56.7773 67.4844 57.2832 67.1562C57.7344 66.8691 58.3359 66.3633 58.623 66.0352C58.9102 65.6934 59.293 65.1055 59.4844 64.709C59.6621 64.3125 59.8672 63.5742 59.9492 63.0684C60.0312 62.4941 60.0859 53.0059 60.0859 37.9121V13.6719H2.11719V37.9121ZM15.3105 3.44531C18.9883 3.43164 22.1055 3.48633 22.4199 3.56836C22.7207 3.63672 23.1172 3.80078 23.3086 3.95117C23.5 4.08789 23.7734 4.41602 23.9238 4.67578C24.1562 5.05859 24.1973 5.38672 24.1973 6.64453C24.1973 8.03906 24.1699 8.20312 23.8418 8.69531C23.6504 8.99609 23.2676 9.35156 22.9941 9.47461C22.5293 9.69336 21.9004 9.70703 15.1875 9.67969C8.05078 9.65234 7.87305 9.63867 7.49023 9.36523C7.28516 9.21484 6.95703 8.80469 6.79297 8.47656C6.50586 7.92969 6.47852 7.72461 6.51953 6.41211C6.54687 5.18164 6.60156 4.89453 6.84766 4.56641C7.01172 4.34766 7.28516 4.07422 7.46289 3.9375C7.64062 3.80078 8.00977 3.63672 8.26953 3.56836C8.5293 3.5 11.7012 3.44531 15.3105 3.44531ZM8.37891 6.52148C8.39258 7 8.43359 7.47852 8.47461 7.60156C8.5293 7.7793 9.41797 7.80664 15.3789 7.80664H22.2148V5.48242C11.6465 5.48242 8.5293 5.52344 8.47461 5.56445C8.40625 5.61914 8.36523 6.04297 8.37891 6.52148ZM38.8535 3.8418C39.0312 3.8418 39.4277 3.89648 39.7422 3.97852C40.0703 4.06055 40.5625 4.32031 40.8633 4.55273C41.1641 4.79883 41.5059 5.25 41.6426 5.55078C41.7793 5.85156 41.8887 6.41211 41.9023 6.80859C41.9023 7.24609 41.793 7.72461 41.6426 8.03906C41.4922 8.32617 41.2051 8.72266 40.9863 8.92773C40.7812 9.11914 40.3711 9.39258 40.084 9.50195C39.8105 9.625 39.3184 9.7207 38.9902 9.7207C38.6211 9.7207 38.1426 9.58398 37.6641 9.33789C37.2266 9.11914 36.8027 8.76367 36.6113 8.49023C36.4336 8.2168 36.2285 7.72461 36.1465 7.39648C36.0508 6.93164 36.0508 6.58984 36.1738 6.09766C36.2969 5.63281 36.5293 5.22266 36.8984 4.82617C37.2129 4.49805 37.7051 4.14258 38.0059 4.04688C38.3066 3.9375 38.6895 3.8418 38.8535 3.8418ZM38.3066 6.13867C38.1699 6.27539 38.0605 6.54883 38.0605 6.80859C38.0742 7.0957 38.1836 7.35547 38.375 7.5332C38.5527 7.68359 38.8125 7.80664 38.9629 7.80664C39.1133 7.80664 39.4004 7.68359 39.6055 7.5332C39.8516 7.35547 39.9883 7.12305 39.9883 6.87695C39.9883 6.67188 39.8926 6.37109 39.7559 6.20703C39.6191 6.04297 39.3867 5.87891 39.2363 5.83789C39.0859 5.81055 38.8672 5.81055 38.7578 5.85156C38.6484 5.89258 38.4434 6.0293 38.3066 6.13867ZM45.7988 3.85547C46.0176 3.8418 46.4414 3.92383 46.7285 4.00586C47.0293 4.10156 47.4805 4.36133 47.7402 4.59375C48.0137 4.8125 48.3418 5.23633 48.4785 5.50977C48.6426 5.82422 48.7383 6.31641 48.7383 6.78125C48.7383 7.19141 48.6426 7.72461 48.5469 7.9707C48.4375 8.2168 48.1777 8.59961 47.959 8.81836C47.7539 9.03711 47.3301 9.32422 47.0293 9.46094C46.7285 9.59766 46.209 9.70703 45.8672 9.70703C45.5254 9.70703 45.0059 9.59766 44.7051 9.46094C44.4043 9.32422 43.9805 9.02344 43.7617 8.81836C43.543 8.59961 43.2832 8.2168 43.1738 7.9707C43.0781 7.72461 42.9961 7.19141 42.9961 6.78125C42.9961 6.30273 43.0918 5.82422 43.2695 5.48242C43.4199 5.18164 43.7617 4.75781 44.0215 4.55273C44.2812 4.34766 44.6914 4.10156 44.9375 4.01953C45.1836 3.92383 45.5664 3.85547 45.7988 3.85547ZM45.1426 6.13867C45.0059 6.27539 44.8965 6.54883 44.8965 6.80859C44.9102 7.13672 45.0059 7.32812 45.2793 7.5332C45.4844 7.68359 45.7578 7.80664 45.8672 7.80664C45.9766 7.80664 46.2363 7.68359 46.4414 7.5332C46.6875 7.35547 46.8242 7.12305 46.8242 6.87695C46.8242 6.67188 46.7285 6.37109 46.5918 6.20703C46.4551 6.04297 46.2227 5.87891 46.0723 5.83789C45.9219 5.81055 45.7031 5.81055 45.5938 5.85156C45.4844 5.89258 45.2793 6.0293 45.1426 6.13867ZM52.6348 3.8418C52.8535 3.8418 53.3457 3.9375 53.7148 4.07422C54.1797 4.23828 54.5625 4.51172 54.918 4.93555C55.2734 5.3457 55.4785 5.75586 55.5742 6.23438C55.6836 6.74023 55.6699 7.06836 55.5332 7.5332C55.4375 7.86133 55.2324 8.32617 55.0684 8.55859C54.918 8.77734 54.4668 9.13281 54.0566 9.33789C53.5918 9.58398 53.0996 9.7207 52.7305 9.7207C52.416 9.7207 51.9238 9.625 51.6367 9.50195C51.3633 9.39258 50.9531 9.11914 50.7344 8.92773C50.5293 8.72266 50.2285 8.32617 50.0918 8.03906C49.9277 7.72461 49.832 7.24609 49.832 6.80859C49.832 6.41211 49.9414 5.85156 50.0781 5.55078C50.2148 5.25 50.5566 4.8125 50.8301 4.59375C51.1035 4.36133 51.5273 4.10156 51.7734 4.01953C52.0195 3.92383 52.4023 3.85547 52.6348 3.8418ZM51.9102 6.28906C51.8145 6.43945 51.7461 6.72656 51.7461 6.91797C51.7461 7.12305 51.8828 7.35547 52.1152 7.5332C52.3203 7.68359 52.5938 7.80664 52.7031 7.80664C52.8125 7.80664 53.0723 7.68359 53.2773 7.5332C53.5508 7.32812 53.6602 7.13672 53.6602 6.80859C53.6602 6.54883 53.5645 6.27539 53.4277 6.13867C53.291 6.01562 53.0586 5.89258 52.9082 5.85156C52.7578 5.81055 52.5117 5.82422 52.3477 5.89258C52.1973 5.96094 51.9922 6.13867 51.9102 6.28906ZM31.6484 20.043C32.9701 20.0703 34.1094 20.1797 35.0664 20.3711C35.8594 20.5352 37.0488 20.8496 37.7324 21.082C38.4023 21.3008 39.4824 21.7383 40.125 22.0391C40.7676 22.3398 41.875 22.9688 42.5859 23.4609C43.2969 23.9395 44.3223 24.7188 44.8555 25.1836C45.4023 25.6621 46.25 26.5098 46.7422 27.084C47.248 27.6445 47.9863 28.6016 48.3965 29.2031C48.793 29.8047 49.4355 30.9121 49.8184 31.6641C50.1875 32.416 50.6797 33.5781 50.8984 34.2617C51.1172 34.9316 51.4043 35.9434 51.5137 36.5176C51.6367 37.0781 51.8008 38.2129 51.8828 39.0469C51.9785 39.8945 52.0059 41.1113 51.9648 41.8496C51.9102 42.5605 51.7734 43.7227 51.6641 44.4473C51.541 45.1582 51.2129 46.4434 50.9258 47.3184C50.6387 48.1797 50.1328 49.4375 49.791 50.1211C49.4492 50.791 48.793 51.9258 48.3145 52.6504C47.7539 53.4844 46.8652 54.5234 45.7988 55.5898C44.8418 56.5469 43.6387 57.5859 42.9277 58.0645C42.2441 58.5293 41.1094 59.1992 40.3984 59.5547C39.6875 59.9102 38.3887 60.4297 37.5273 60.7168C36.666 60.9902 35.3398 61.3184 34.5879 61.4414C33.8359 61.5645 32.7285 61.7012 32.127 61.7422C31.5254 61.7832 30.2949 61.7559 29.3926 61.6738C28.4902 61.5918 27.1367 61.373 26.3848 61.1953C25.6328 61.0176 24.5527 60.7031 23.9922 60.498C23.4316 60.293 22.4062 59.8555 21.7363 59.5137C21.0527 59.1719 19.9453 58.5293 19.2754 58.0645C18.6055 57.5996 17.416 56.6152 16.623 55.8633C15.8438 55.1113 14.832 53.9629 14.3535 53.334C13.8887 52.6914 13.2461 51.7344 12.9453 51.2148C12.6445 50.6816 12.1523 49.6699 11.8379 48.959C11.5371 48.2344 11.0996 46.9492 10.8809 46.0879C10.6484 45.1719 10.4023 43.7363 10.3066 42.6699C10.1699 41.2207 10.1699 40.4551 10.293 39.1152C10.3887 38.1719 10.6074 36.75 10.7988 35.9707C10.9902 35.1777 11.4004 33.9199 11.6875 33.168C11.9883 32.416 12.4941 31.3359 12.8086 30.7754C13.1367 30.2012 13.6973 29.3125 14.0801 28.793C14.4492 28.2598 15.1328 27.3984 15.5977 26.8789C16.0625 26.3457 16.9238 25.5117 17.5117 25.0059C18.0996 24.5137 19.1387 23.748 19.8223 23.3105C20.4922 22.873 21.5449 22.2852 22.1465 21.998C22.748 21.7246 23.8828 21.2734 24.6758 21.0137C25.4688 20.7539 26.6992 20.4531 27.4102 20.3301C28.1211 20.207 28.9277 20.084 29.1875 20.0566C29.4473 20.0156 30.5547 20.0156 31.6484 20.043ZM27.8203 22.2305C27.1094 22.3535 25.8789 22.6543 25.0859 22.9277C24.293 23.1875 23.0625 23.707 22.3516 24.0898C21.6406 24.459 20.5605 25.1289 19.9727 25.5527C19.3848 25.9766 18.373 26.8516 17.7168 27.5078C17.0742 28.1504 16.1855 29.1758 15.7617 29.7637C15.3379 30.3516 14.6816 31.418 14.2988 32.1426C13.9297 32.8535 13.4238 34.0156 13.1777 34.7402C12.9453 35.4512 12.6309 36.6543 12.4805 37.4062C12.2891 38.3633 12.207 39.3477 12.1934 40.7559C12.1934 42.082 12.2617 43.1895 12.4258 44.1055C12.5625 44.8574 12.8496 46.0195 13.082 46.7031C13.3008 47.373 13.6973 48.3848 13.957 48.959C14.2168 49.5195 14.8457 50.5996 15.3379 51.3516C15.9258 52.2539 16.7598 53.2246 17.7578 54.2227C18.5918 55.043 19.7402 56.041 20.3008 56.4238C20.8613 56.8203 21.873 57.4082 22.5566 57.75C23.2266 58.0918 24.4297 58.584 25.2227 58.8574C26.0156 59.1172 27.2461 59.4316 27.957 59.541C28.668 59.6641 30.0898 59.7598 31.1016 59.7598C32.1543 59.7598 33.4941 59.6641 34.2461 59.541C34.957 59.418 36.1602 59.1172 36.9121 58.8711C37.6641 58.625 38.7988 58.1602 39.4414 57.8457C40.084 57.5312 41.123 56.916 41.7656 56.4922C42.4355 56.0547 43.5566 55.0977 44.4316 54.2227C45.2656 53.3887 46.25 52.2539 46.6328 51.6934C47.0293 51.1191 47.6445 50.0527 48.0273 49.3008C48.3965 48.5488 48.9023 47.332 49.1348 46.5938C49.3672 45.8691 49.6543 44.666 49.7637 43.9277C49.8867 43.2031 49.9824 41.7949 49.9824 40.8242C49.9824 39.8398 49.9141 38.6094 49.832 38.0898C49.75 37.5566 49.5312 36.5723 49.3535 35.9023C49.1758 35.2188 48.793 34.1113 48.5059 33.4414C48.2051 32.7578 47.7266 31.8008 47.4395 31.3223C47.1523 30.8301 46.5918 29.9961 46.1953 29.4766C45.8125 28.9434 44.8828 27.9316 44.1309 27.2207C43.3926 26.4961 42.2715 25.5664 41.6289 25.1426C40.9863 24.7188 40.002 24.1445 39.4414 23.8574C38.8809 23.584 37.8008 23.1465 37.0488 22.9004C36.2969 22.6543 35.1211 22.3398 34.4512 22.2305C33.7676 22.1074 32.5098 21.9844 31.6484 21.957C30.7871 21.9297 29.8574 21.9297 29.5977 21.9707C29.3379 21.998 28.5312 22.1211 27.8203 22.2305ZM31.7168 25.5254C32.5371 25.5527 33.7402 25.7031 34.3828 25.8398C35.0254 25.9766 35.9414 26.25 36.4336 26.4277C36.9258 26.6191 37.6641 26.9336 38.0742 27.1523C38.4844 27.3574 39.1953 27.7812 39.6465 28.082C40.0977 28.3965 40.8633 28.9844 41.3555 29.4082C41.8477 29.832 42.6543 30.7207 43.1738 31.3906C43.6797 32.0605 44.3086 33.0449 44.582 33.5781C44.9922 34.3848 45.0332 34.5762 44.9102 34.877C44.8281 35.0547 44.4453 35.4102 44.0488 35.6426C43.6523 35.875 43.0508 36.3672 42.709 36.7363C42.3672 37.1055 41.9434 37.666 41.7793 37.9805C41.6289 38.3086 41.3965 38.9238 41.2871 39.3477C41.1641 39.7852 41.082 40.4688 41.082 40.8926C41.082 41.3027 41.1777 42.0137 41.2871 42.4648C41.4102 42.916 41.6699 43.5586 41.8613 43.9004C42.0664 44.2285 42.4492 44.748 42.709 45.0352C42.9824 45.3359 43.5566 45.7871 44.0078 46.0605C44.4453 46.334 44.8555 46.7031 44.9238 46.8672C45.0059 47.0859 44.9648 47.3594 44.7598 47.8242C44.6094 48.1797 44.1855 48.9043 43.8438 49.4375C43.4883 49.957 42.709 50.9004 42.1074 51.5293C41.5059 52.1582 40.6172 52.9648 40.125 53.334C39.6328 53.6895 38.6758 54.2637 38.0059 54.6055C37.3223 54.9336 36.2832 55.3711 35.6816 55.5625C35.0801 55.7402 34.123 55.9727 33.5625 56.0684C32.9199 56.1641 31.7715 56.2051 30.4863 56.1641C29.0508 56.1094 28.1211 56.0137 27.4102 55.8223C26.8496 55.6719 25.9473 55.3711 25.4277 55.166C24.8945 54.9609 24.0332 54.5371 23.5137 54.2363C22.9805 53.9492 22.2148 53.4434 21.8047 53.1152C21.3945 52.8008 20.6836 52.1719 20.2461 51.7344C19.8086 51.2969 19.1797 50.5996 18.8652 50.1895C18.5508 49.7656 18.0723 49.0684 17.7988 48.6172C17.5391 48.166 17.1152 47.3047 16.8691 46.7031C16.6367 46.1016 16.3223 45.1445 16.1719 44.584C16.0352 44.0098 15.8574 42.9434 15.7891 42.1914C15.7207 41.3711 15.707 40.291 15.7891 39.5254C15.8438 38.8008 16.0352 37.6934 16.1992 37.0645C16.3633 36.4219 16.7188 35.3691 16.9922 34.7402C17.2793 34.0977 17.8672 33.0176 18.3184 32.3477C18.7695 31.6641 19.6035 30.6523 20.1641 30.0781C20.7246 29.5039 21.6543 28.7109 22.2148 28.3145C22.7754 27.918 23.6367 27.3984 24.1289 27.1523C24.6211 26.9062 25.4414 26.5508 25.9746 26.3594C26.4941 26.168 27.4375 25.9219 28.0527 25.8125C28.6816 25.7031 29.4199 25.5801 29.6934 25.5391C29.9805 25.498 30.8828 25.498 31.7168 25.5254ZM27.6152 27.8906C27.0137 28.0547 25.9062 28.4785 25.1543 28.8477C24.3477 29.2441 23.3086 29.9004 22.6387 30.4473C21.9961 30.9668 21.0938 31.8828 20.6152 32.4844C20.1367 33.0859 19.4395 34.1934 19.0703 34.9453C18.7012 35.6973 18.2637 36.8047 18.0996 37.4062C17.9082 38.1445 17.7852 39.0879 17.7305 40.3457C17.6758 41.7676 17.7168 42.4512 17.8945 43.3535C18.0312 43.9824 18.3184 45.0078 18.5371 45.6094C18.7559 46.2109 19.248 47.2227 19.6445 47.8652C20.041 48.4941 20.8477 49.5332 21.4492 50.1621C22.0645 50.791 23.0488 51.6387 23.6504 52.0352C24.252 52.4316 25.1133 52.9238 25.5645 53.1152C26.0156 53.3203 26.9043 53.6348 27.5469 53.8262C28.4492 54.0996 29.1191 54.1953 30.5547 54.25C32.0586 54.3047 32.6328 54.2637 33.6992 54.0449C34.4102 53.8945 35.4902 53.5801 36.0918 53.3477C36.6934 53.1152 37.7324 52.5684 38.416 52.1172C39.1133 51.6523 40.084 50.8457 40.6719 50.2305C41.2324 49.6426 41.916 48.8223 42.2031 48.4121L42.6953 47.6602C41.4102 46.4844 40.7949 45.7871 40.4941 45.3359C40.1797 44.8848 39.7832 44.1055 39.6055 43.627C39.3457 42.957 39.25 42.3691 39.1953 41.3027C39.1543 40.2363 39.1953 39.6348 39.3594 38.9785C39.4824 38.4863 39.7695 37.6797 40.002 37.2012C40.3164 36.5586 40.7539 35.9844 41.5742 35.1777L42.7227 34.0566C41.6836 32.6211 41.0547 31.8691 40.6582 31.4453C40.248 31.0215 39.5234 30.3926 39.0312 30.0234C38.5391 29.668 37.6641 29.1348 37.0762 28.8477C36.502 28.5469 35.4766 28.1504 34.8203 27.959C34.1641 27.7676 33.043 27.5762 32.332 27.5215C31.6211 27.4668 30.5137 27.4531 29.8711 27.5078C29.2285 27.5488 28.2168 27.7266 27.6152 27.8906ZM23.1035 33.9199C23.3906 33.9199 23.6777 34.0156 23.8555 34.1934C24.0059 34.3438 24.1289 34.6035 24.1289 34.7676C24.1289 34.9453 23.9102 35.3828 23.623 35.7656C23.3496 36.1348 23.0352 36.6406 22.9395 36.8867C22.8438 37.1328 22.7617 37.625 22.7617 37.9805C22.7617 38.3496 22.8711 38.8418 23.0078 39.1152C23.1445 39.375 23.5957 40.0449 24.0332 40.6191C24.5664 41.3301 24.8672 41.8906 25.0312 42.4648C25.1816 42.998 25.2363 43.5859 25.1953 44.1738C25.1543 44.707 24.9902 45.3496 24.7852 45.8145C24.5938 46.2246 24.1836 46.8535 23.8691 47.209C23.459 47.6875 23.2129 47.8652 22.9258 47.8652C22.7207 47.8652 22.4199 47.7695 22.2422 47.6602C22.0371 47.5098 21.9414 47.3184 21.9414 47.0039C21.9414 46.7031 22.1055 46.334 22.4883 45.8145C22.8027 45.3906 23.1035 44.8438 23.1719 44.584C23.2402 44.3105 23.3086 43.9414 23.3086 43.7637C23.3086 43.5723 23.2402 43.2031 23.1719 42.9434C23.0898 42.6699 22.625 41.9316 22.1465 41.3027C21.5859 40.5508 21.1758 39.8672 21.0391 39.3887C20.875 38.8555 20.8203 38.3359 20.875 37.6113C20.9023 36.9961 21.0527 36.3262 21.2168 35.9707C21.3672 35.6289 21.75 35.0273 22.0645 34.6309C22.543 34.0156 22.6934 33.9199 23.1035 33.9199ZM29.2695 33.9199C29.5156 33.9199 29.8301 34.002 29.9395 34.125C30.0488 34.2344 30.1855 34.4941 30.2266 34.6992C30.2812 34.9727 30.2266 35.1777 30.0215 35.4238C29.8574 35.6016 29.543 36.0664 29.3242 36.4492C29.0098 36.9688 28.9141 37.2969 28.9141 37.8438C28.9141 38.2402 29.0098 38.8008 29.1328 39.0742C29.2422 39.3613 29.625 39.9219 29.9668 40.3457C30.3086 40.7559 30.7324 41.3984 30.9102 41.7812C31.0879 42.1504 31.2793 42.8613 31.3203 43.3535C31.3887 44.0508 31.3477 44.4336 31.1289 45.1992C30.9238 45.8691 30.6504 46.3887 30.1719 46.9766C29.625 47.6465 29.4336 47.7969 29.0371 47.8379C28.6953 47.8652 28.4902 47.7969 28.2988 47.5781C28.1484 47.4141 28.0254 47.127 28.0254 46.9219C28.0254 46.7168 28.2441 46.293 28.5176 45.9512C28.791 45.6094 29.0918 45.1719 29.1875 44.9941C29.2832 44.8027 29.3652 44.2832 29.3789 43.832C29.3789 43.2852 29.2923 42.8522 29.1191 42.5332C28.9824 42.2598 28.5723 41.6855 28.2031 41.2344C27.834 40.7832 27.4102 40.0723 27.2598 39.6621C27.0273 39.0469 26.9863 38.6777 27.0273 37.6797C27.0684 36.6953 27.1504 36.3125 27.4375 35.7656C27.6289 35.3828 28.0254 34.8223 28.2988 34.4941C28.6953 34.0293 28.8867 33.9199 29.2695 33.9199ZM35.4492 33.9473C35.7773 33.9746 36.0098 34.0977 36.2148 34.3574C36.4883 34.7266 36.4883 34.7539 36.2559 35.1777C36.1191 35.4238 35.8184 35.8887 35.5723 36.2168C35.1621 36.7773 35.1348 36.8867 35.1348 39.0605L36.0508 40.2773C36.5566 40.9473 37.0762 41.8086 37.2129 42.1914C37.3496 42.5879 37.4453 43.2852 37.4453 43.9004C37.4453 44.7617 37.377 45.0488 37.0215 45.8145C36.7754 46.293 36.3516 46.9629 36.0645 47.2773C35.6543 47.7285 35.4492 47.8516 35.0938 47.8516C34.7656 47.8652 34.5879 47.7695 34.3691 47.4824C34.2188 47.2773 34.0957 47.0176 34.0957 46.9082C34.0957 46.7852 34.3965 46.3066 34.752 45.8145C35.3535 45.0078 35.4082 44.8574 35.4492 44.0371C35.4902 43.4629 35.4355 42.9707 35.2988 42.6699C35.1895 42.3965 34.8203 41.8496 34.4922 41.4395C34.1504 41.0156 33.7402 40.4004 33.5625 40.0723C33.3984 39.7305 33.207 39.1152 33.1387 38.7051C33.0703 38.2402 33.0703 37.625 33.1523 37.1328C33.2207 36.6816 33.4121 36.0664 33.5488 35.7656C33.6992 35.4648 34.082 34.918 34.3965 34.5625C34.9023 33.9746 35.0254 33.9062 35.4492 33.9473Z" fill="#DACCCC"/>
</svg>
