<svg width="70" height="70" viewBox="0 0 70 70" fill="none" xmlns="http://www.w3.org/2000/svg">
<g clip-path="url(#clip0_19_7917)">
<path fill-rule="evenodd" clip-rule="evenodd" d="M17.2949 0.0273438L52.4316 0L54.1406 0.355469C55.084 0.546875 56.3691 0.902344 57.0117 1.12109C57.6543 1.35352 58.5977 1.75 59.1309 2.00977C59.6641 2.2832 60.5117 2.77539 61.0449 3.11719C61.5781 3.44531 62.3164 3.97852 62.6855 4.2793C63.0684 4.58008 63.6699 5.11328 64.0254 5.45508C64.3945 5.79688 65.0508 6.50781 65.4883 7.04102C65.9121 7.57422 66.541 8.42188 66.8828 8.95508C67.2246 9.47461 67.7168 10.3496 67.9902 10.8691C68.25 11.3887 68.6602 12.373 68.8926 13.0566C69.1387 13.7402 69.4805 15.0391 70 17.6367V34.9043C70 51.7207 70 52.1992 69.7266 53.7305C69.5625 54.5918 69.2344 55.918 68.9883 56.6699C68.7285 57.4219 68.3047 58.502 68.0176 59.0625C67.7305 59.623 67.1836 60.5801 66.7871 61.1816C66.3906 61.7832 65.6797 62.7402 65.1875 63.3008C64.709 63.8613 63.793 64.7637 63.1641 65.2969C62.5215 65.8301 61.5781 66.5547 61.0449 66.8828C60.5117 67.2246 59.6641 67.7168 59.1309 67.9902C58.5977 68.25 57.6543 68.6465 57.0117 68.8789C56.3691 69.0977 55.084 69.4531 52.4316 70H17.5684L15.8594 69.6445C14.916 69.4531 13.6309 69.0977 12.9883 68.8789C12.3457 68.6465 11.3887 68.25 10.8691 67.9902C10.3496 67.7168 9.47461 67.2246 8.95508 66.8828C8.43555 66.541 7.57422 65.9121 7.04102 65.4883C6.52148 65.0508 5.79688 64.3945 5.45508 64.0254C5.11328 63.6699 4.58008 63.0684 4.2793 62.6855C3.97852 62.3164 3.44531 61.5781 3.11719 61.0449C2.77539 60.5117 2.2832 59.6641 2.00977 59.1309C1.75 58.5977 1.33984 57.627 1.10742 56.9434C0.861328 56.2734 0.519531 54.9609 0 52.3633V35.1094C0 18.2793 0 17.8008 0.273438 16.2695C0.4375 15.4082 0.765625 14.082 1.01172 13.3301C1.27148 12.5781 1.72266 11.4707 2.02344 10.8691C2.32422 10.2676 2.95312 9.1875 3.43164 8.47656C3.95117 7.69727 4.88086 6.60352 5.74219 5.74219C6.60352 4.88086 7.69727 3.95117 8.47656 3.43164C9.1875 2.95312 10.2402 2.33789 10.8008 2.05078C11.3613 1.76367 12.373 1.33984 13.0566 1.10742C13.7402 0.861328 14.9707 0.533203 15.791 0.355469L17.2949 0.0273438ZM15.2441 4.7168C14.5605 4.9082 13.3984 5.35938 12.6465 5.74219C11.8945 6.11133 10.8828 6.71289 10.3906 7.08203C9.89844 7.45117 9.05078 8.20312 8.50391 8.76367C7.94336 9.31055 7.16406 10.2676 6.76758 10.8691C6.35742 11.4707 5.82422 12.4141 5.55078 12.9883C5.29102 13.5488 4.92188 14.5332 4.74414 15.1758C4.55273 15.8047 4.33398 16.8574 4.23828 17.5C4.12891 18.3203 4.10156 23.584 4.12891 35.752L4.16992 52.8418C4.73047 54.8516 5.07227 55.8906 5.31836 56.4648C5.55078 57.0254 6.04297 57.9824 6.41211 58.584C6.78125 59.1855 7.4375 60.0742 7.875 60.5664C8.3125 61.0449 9.03711 61.7695 9.50195 62.1797C9.95312 62.5762 10.8145 63.2051 11.416 63.5742C12.0176 63.957 12.9746 64.4492 13.5352 64.6816C14.0957 64.9141 15.1484 65.2695 15.8594 65.4609L17.1582 65.8301H52.8418C54.8516 65.2695 55.9043 64.9141 56.4648 64.6816C57.0254 64.4492 57.9824 63.957 58.584 63.5879C59.1855 63.2188 60.0469 62.5898 60.498 62.1934C60.9492 61.7969 61.6738 61.0723 62.1113 60.5801C62.5488 60.0742 63.2051 59.1855 63.5879 58.584C63.957 57.9824 64.4492 57.0254 64.6816 56.4648C64.9277 55.8906 65.2695 54.8516 65.4746 54.1406L65.8301 52.8418V17.1582C65.2695 15.1348 64.9277 14.0957 64.6816 13.5352C64.4492 12.9609 63.957 12.0176 63.5879 11.416C63.2188 10.8145 62.5625 9.91211 62.1113 9.41992C61.6738 8.91406 60.9492 8.18945 60.498 7.79297C60.0469 7.39648 59.1855 6.76758 58.584 6.39844C57.9824 6.0293 57.0254 5.53711 56.4648 5.30469C55.9043 5.07227 54.8516 4.7168 54.1406 4.52539L52.8418 4.16992C25.9355 4.12891 17.7461 4.18359 17.2949 4.23828C16.8438 4.30664 15.9277 4.52539 15.2441 4.7168ZM15.8594 18.6074C18.9219 18.5938 19.4004 18.6211 19.8105 18.8262C20.0703 18.9629 20.3984 19.2227 20.5352 19.4141C20.6719 19.5918 21.1641 20.7676 21.6426 22.0117C22.1348 23.2422 22.873 25.0332 23.2969 25.9766C23.7207 26.9062 24.418 28.3008 24.8418 29.0527C25.2656 29.8047 25.8945 30.8301 26.2363 31.3223C26.5781 31.8281 26.9062 32.2109 26.9746 32.1836C27.0293 32.1426 27.0703 30.5977 27.0703 28.7383C27.0703 26.8789 27.0156 25.1426 26.9336 24.8828C26.8652 24.6094 26.6055 24.0898 26.3457 23.7207C26.0996 23.3379 25.8125 22.791 25.7168 22.4902C25.6074 22.1621 25.5664 21.7109 25.6211 21.3965C25.6621 21.0957 25.8809 20.5625 26.0859 20.2344C26.291 19.8926 26.6738 19.4824 26.9336 19.3184C27.1934 19.1543 27.7812 18.9219 28.2324 18.7988C28.8887 18.6211 29.9141 18.5801 37.9395 18.5801L38.6914 18.9629C39.1562 19.209 39.6211 19.5918 39.8945 19.9609C40.1543 20.3027 40.4414 20.877 40.5508 21.2598C40.7012 21.7793 40.7422 22.9141 40.7422 26.2773C40.7422 29.0391 40.7969 30.6387 40.8789 30.6934C40.9609 30.7207 41.248 30.4609 41.5488 30.1055C41.8359 29.75 42.3965 28.998 42.793 28.4375C43.1895 27.8633 43.9277 26.7012 44.4199 25.8262C44.9121 24.9648 45.6641 23.4883 46.0742 22.5449C46.6758 21.1914 46.9629 20.6992 47.5098 20.1523C47.8789 19.7695 48.4805 19.332 48.8496 19.168C49.2051 18.9902 49.8203 18.7988 50.2168 18.7168C50.5996 18.6484 52.3086 18.5801 54.0039 18.5938C56.0547 18.5938 57.2578 18.6484 57.6133 18.7578C57.9004 18.8535 58.3652 19.1133 58.6387 19.3457C58.9121 19.5781 59.2676 20.043 59.4316 20.3711C59.6641 20.8086 59.7461 21.2188 59.7461 21.875C59.7461 22.3535 59.6504 23.0918 59.5273 23.5156C59.4043 23.9258 59.1445 24.5684 58.9668 24.9512C58.7754 25.3203 57.4492 27.3574 56.0137 29.4629C54.5781 31.5684 53.1973 33.5645 52.9512 33.9062C52.6914 34.2344 52.4316 34.6992 52.3496 34.9316C52.2676 35.1914 52.2676 35.4648 52.3496 35.6836C52.418 35.8613 53.9902 37.707 55.8633 39.7852C57.7227 41.8496 59.5684 43.9414 59.9785 44.4336C60.3887 44.9121 60.9082 45.7188 61.1543 46.1973C61.5234 46.9629 61.5918 47.2363 61.5918 48.125C61.5918 49.041 61.5508 49.2461 61.1816 49.834C60.8535 50.3535 60.5664 50.6133 59.1445 51.3379L55.5898 51.3242C52.5547 51.3242 51.8848 51.2969 51.1328 51.0781C50.6406 50.9414 49.7793 50.5859 49.2188 50.2988C48.5352 49.9434 47.7148 49.3281 46.7305 48.4258C45.9238 47.7012 44.2695 46.1426 40.8105 42.8613L40.7422 45.5273C40.6738 47.9883 40.6465 48.248 40.332 48.9316C40.1133 49.3828 39.7305 49.8887 39.3066 50.2715C38.9375 50.5996 38.3496 50.9551 38.0078 51.0781C37.6523 51.2012 36.7227 51.3242 35.8203 51.3652C34.959 51.4062 33.6328 51.3652 32.8809 51.2832C32.1289 51.1875 31.0488 50.9961 30.4883 50.832C29.9277 50.668 28.8203 50.2715 28.0273 49.9297C27.2344 49.6016 26.1543 49.0684 25.6348 48.7676C25.1152 48.4531 24.377 47.9883 23.9941 47.7285C23.625 47.4551 22.8457 46.8672 22.2852 46.416C21.7246 45.9648 20.6855 45.0078 19.9883 44.2969C19.2773 43.5723 18.1699 42.3418 17.541 41.5625C16.9121 40.7695 16.0371 39.5938 15.5996 38.9648C15.1621 38.3223 14.4512 37.2148 14.0137 36.5039C13.5762 35.7793 12.7148 34.1797 12.0996 32.9492C11.4844 31.7051 10.6504 29.8867 10.2539 28.916C9.85742 27.9316 9.25586 26.332 8.92773 25.3613C8.36719 23.7344 8.3125 23.4883 8.36719 22.5586C8.4082 21.752 8.51758 21.3691 8.83203 20.7812C9.05078 20.3711 9.47461 19.8652 9.77539 19.6465C10.0762 19.4277 10.541 19.1543 10.8008 19.0449C11.0605 18.9355 11.5254 18.7852 11.8262 18.7305C12.127 18.6621 13.9453 18.6074 15.8594 18.6074ZM13.0977 24.8828C13.4668 25.8945 14.041 27.3438 14.3555 28.0957C14.6699 28.8477 15.3809 30.3516 15.9414 31.4453C16.4883 32.5254 17.377 34.125 17.9102 35C18.457 35.8613 19.4277 37.2695 20.0703 38.1445C20.7129 39.0059 22.0527 40.5098 23.0371 41.4941C24.0078 42.4648 25.375 43.6543 26.0449 44.1328C26.7285 44.6113 28.0137 45.3633 28.916 45.8145C29.8184 46.252 31.0488 46.7441 31.6504 46.9082C32.5117 47.1406 33.1543 47.209 34.6582 47.209L36.5723 47.2363C36.6816 42.0137 36.7637 40.7012 36.8594 40.5371C36.9414 40.3867 37.2559 40.0449 37.543 39.7852C37.8438 39.5391 38.2812 39.2383 38.5137 39.1426C38.7598 39.0469 39.293 38.8965 39.6758 38.8145C40.1816 38.7188 40.6465 38.7324 41.2207 38.8281C41.6719 38.9102 42.3418 39.1289 42.7246 39.3203C43.1895 39.5391 44.5156 40.7012 46.9629 43.0254C49.9844 45.8828 50.668 46.4707 51.4062 46.8125C52.2676 47.209 52.377 47.2227 54.5918 47.2637C55.8496 47.2773 56.875 47.25 56.875 47.1953C56.8887 47.1406 55.125 45.1309 52.9785 42.7246C50.4766 39.9219 48.9453 38.1035 48.7402 37.666C48.5488 37.2832 48.3438 36.6406 48.2617 36.2305C48.1797 35.8066 48.1523 35.1641 48.207 34.7949C48.248 34.4121 48.4258 33.7695 48.5762 33.3594C48.7402 32.9355 49.0547 32.3203 49.2871 31.9922C49.5195 31.6504 50.2578 30.5703 50.9414 29.5996C51.625 28.6152 52.8965 26.7559 53.7715 25.457C54.6465 24.1582 55.3711 23.0098 55.3711 22.9004C55.3711 22.7227 55.043 22.6953 53.1836 22.6953C51.707 22.6953 50.8867 22.75 50.6543 22.8594C50.4219 22.9824 50.1758 23.3379 49.8887 24.0625C49.6562 24.623 49.0684 25.8535 48.5762 26.7969C48.084 27.7266 47.291 29.0801 46.8262 29.8047C46.3613 30.5156 45.582 31.5957 45.1035 32.1973C44.625 32.7988 43.6543 33.8516 42.9297 34.5488C42.2188 35.2461 41.3711 35.9434 41.043 36.0938C40.7148 36.2441 40.1816 36.3672 39.7852 36.3672C39.4023 36.3672 38.8691 36.2578 38.582 36.1484C38.3086 36.0254 37.8711 35.7656 37.6113 35.5605C37.3516 35.3691 37.0234 34.959 36.8867 34.6582C36.668 34.1523 36.6406 33.5781 36.6406 28.3965V22.6953H30.625C30.7344 23.1602 30.8711 23.7344 30.9805 24.2676C31.1445 25.0469 31.1855 26.2637 31.1445 31.2402C31.1035 37.2148 31.1035 37.2559 30.7891 37.6934C30.625 37.9395 30.3105 38.2266 30.0781 38.3496C29.8457 38.459 29.3809 38.5547 29.0117 38.5547C28.5469 38.5547 28.0957 38.418 27.3438 38.0488C26.5508 37.666 26.0312 37.2559 25.0059 36.2305C24.0762 35.3145 23.3516 34.4121 22.5723 33.2227C21.957 32.2793 20.9316 30.4609 20.3164 29.1895C19.6875 27.9043 18.8398 26.0312 18.416 25.0195C18.0059 23.9941 17.6367 23.0645 17.582 22.9277C17.5137 22.709 17.2539 22.6953 15.0391 22.6953C13.1934 22.6953 12.5508 22.7363 12.4961 22.8594C12.4688 22.9551 12.7285 23.8574 13.0977 24.8828Z" fill="#9E8D86"/>
</g>
<defs>
<clipPath id="clip0_19_7917">
<rect width="70" height="70" fill="white"/>
</clipPath>
</defs>
</svg>
