<svg width="330" height="157" viewBox="0 0 330 157" fill="none" xmlns="http://www.w3.org/2000/svg">
<path d="M14.9203 27.1209C15.2187 17.7793 13.4282 12.9578 7.75854 7.53359L0.298405 0H62.0683L54.9066 7.53359C49.5353 12.6564 47.4465 18.382 47.4465 26.2169C47.4465 33.1478 49.8337 41.8868 54.3098 48.215C58.7859 55.4472 68.6333 62.6795 84.1503 70.8157C96.6834 77.4453 106.829 83.1708 106.232 83.4722C105.934 84.0749 93.9977 81.0614 79.6743 76.8426C65.0524 72.6238 48.3417 66.8983 42.0752 63.5835C36.1071 60.5701 27.4533 53.9405 22.6788 48.5163C16.7107 41.5854 14.6219 36.1612 14.9203 27.1209Z" fill="white"/>
<path d="M131 0C131 0 128.121 3.63426 125.242 8.13628C121.148 14.537 117.094 42.8843 116.378 74.8657C116.975 34.4712 109.863 13.5484 106.232 8.13628C102.602 2.72419 100.264 0 100.264 0H131Z" fill="white"/>
<path d="M14.6219 110.894C14.3235 89.499 15.2187 81.3628 19.0979 76.2399C22.9772 71.1171 26.8565 69.6104 36.7039 69.9117C43.5672 69.9117 61.1731 74.7332 102.95 90.4031L83.5535 88.595C68.0364 87.0883 62.3667 87.691 55.8018 91.6084C48.0433 96.4299 47.7449 97.9367 47.7449 117.825C47.7449 135.906 48.6401 140.125 62.6651 157H0L7.46014 147.96C14.3235 139.823 14.9203 136.509 14.6219 110.894Z" fill="white"/>
<path d="M113.394 90.7044C111.604 90.7044 110.41 89.499 110.41 87.691C110.41 86.1843 111.604 84.6776 113.394 84.6776C114.886 84.6776 116.378 86.1843 116.378 87.691C116.378 89.499 114.886 90.7044 113.394 90.7044Z" fill="white"/>
<path d="M105.934 147.96C108.62 145.549 112.2 138.015 113.991 131.386L117.273 119.332L119.064 130.18C119.959 136.207 122.943 143.741 125.927 146.754C128.613 150.069 131 155.707 131 156.611H116.378H101.159C101.159 155.707 103.248 150.37 105.934 147.96Z" fill="white"/>
<path d="M201.188 95.9164L204.328 155.802H185.606C186.769 153.646 200.866 135.199 201.099 97.3511C199.587 126.935 188.409 155.802 169.708 155.802C152.465 155.802 147 144.424 147 125.859C147 114.84 152.465 95.9164 152.465 95.9164H172.582C172.582 95.9164 167.466 107.774 162.582 122.146C157.466 137.238 158.87 149.793 165.033 152.309C173.289 155.662 197.959 138.792 201.099 95.9138L201.188 95.9164Z" fill="white"/>
<path d="M248.966 155.802H230.477C236.059 140.112 240.361 122.266 238.5 110.648C232.803 112.325 228.384 114.361 223.384 114.122C201.987 113.283 202.22 94 216.988 94C227.57 94 235.245 98.192 240.361 106.337C244.082 103.702 247.005 97.1248 253.385 94.8384C260.642 92.2375 273.037 96.635 273.037 96.635L273.618 113.163C258.85 107.774 249.431 108.013 242.105 109.69C245.477 116.637 247.454 125.859 248.036 137.238C248.85 151.011 248.966 155.802 248.966 155.802ZM223.035 112.684C227.802 112.684 232.454 111.487 237.919 108.013C236.524 103.103 233.733 99.749 229.198 98.4316C219.779 95.7966 213.848 112.684 223.035 112.684Z" fill="white"/>
<path d="M305.464 157C291.278 157 285.58 144.065 282.324 125.74C280.347 114.002 279.998 95.9164 279.998 95.9164H298.604C298.604 95.9164 296.045 105.259 292.673 122.146C289.533 138.196 291.161 149.814 295.58 152.449C305.813 158.677 327.209 120.829 319.069 116.278C311.976 112.205 296.743 138.076 296.743 138.076L296.045 117.236C296.045 117.236 303.139 113.163 311.278 113.163C321.162 113.163 330 120.35 330 133.165C330 145.861 319.302 157 305.464 157Z" fill="white"/>
</svg>
