<svg width="40" height="40" viewBox="0 0 40 40" fill="none" xmlns="http://www.w3.org/2000/svg">
<circle cx="19.9993" cy="18.3333" r="3.33333" stroke="white" stroke-width="4"/>
<path d="M19.9988 36.6671L18.5846 38.0813C19.3656 38.8623 20.6319 38.8623 21.413 38.0813L19.9988 36.6671ZM10.8321 27.5004L12.2463 26.0862H12.2463L10.8321 27.5004ZM29.1654 9.16707L30.5797 7.75286L29.1654 9.16707ZM10.8321 9.16707L9.4179 7.75286L9.4179 7.75286L10.8321 9.16707ZM27.7512 26.0862L18.5846 35.2529L21.413 38.0813L30.5797 28.9146L27.7512 26.0862ZM21.413 35.2529L12.2463 26.0862L9.4179 28.9146L18.5846 38.0813L21.413 35.2529ZM27.7512 10.5813C32.0328 14.8628 32.0328 21.8046 27.7512 26.0862L30.5797 28.9146C36.4233 23.071 36.4233 13.5965 30.5797 7.75286L27.7512 10.5813ZM12.2463 10.5813C16.5279 6.29973 23.4697 6.29973 27.7512 10.5813L30.5797 7.75286C24.736 1.9092 15.2616 1.9092 9.4179 7.75286L12.2463 10.5813ZM9.4179 7.75286C3.57424 13.5965 3.57424 23.071 9.4179 28.9146L12.2463 26.0862C7.96477 21.8046 7.96477 14.8628 12.2463 10.5813L9.4179 7.75286Z" fill="white"/>
</svg>
