<svg width="40" height="40" viewBox="0 0 40 40" fill="none" xmlns="http://www.w3.org/2000/svg">
<circle cx="19.9996" cy="18.3333" r="3.33333" stroke="#DACCCC" stroke-width="4"/>
<path d="M19.9998 36.6668L18.5855 38.081C19.3666 38.8621 20.6329 38.8621 21.414 38.081L19.9998 36.6668ZM10.8331 27.5002L12.2473 26.086H12.2473L10.8331 27.5002ZM29.1664 9.16683L30.5806 7.75261L29.1664 9.16683ZM10.8331 9.16683L9.41887 7.75261L9.41887 7.75262L10.8331 9.16683ZM27.7522 26.0859L18.5855 35.2526L21.414 38.081L30.5806 28.9144L27.7522 26.0859ZM21.414 35.2526L12.2473 26.086L9.41888 28.9144L18.5855 38.081L21.414 35.2526ZM27.7522 10.581C32.0338 14.8626 32.0338 21.8044 27.7522 26.0859L30.5806 28.9144C36.4243 23.0707 36.4243 13.5963 30.5806 7.75261L27.7522 10.581ZM12.2473 10.581C16.5289 6.29948 23.4706 6.29948 27.7522 10.581L30.5806 7.75261C24.737 1.90896 15.2625 1.90896 9.41887 7.75261L12.2473 10.581ZM9.41887 7.75262C3.57522 13.5963 3.57522 23.0707 9.41888 28.9144L12.2473 26.086C7.96574 21.8044 7.96574 14.8626 12.2473 10.581L9.41887 7.75262Z" fill="#DACCCC"/>
</svg>
