<svg width="410" height="489" viewBox="0 0 410 489" fill="none" xmlns="http://www.w3.org/2000/svg">
<path d="M46.697 84.4722C47.631 55.3762 42.0273 40.3589 24.2825 23.4645L0.933941 0H194.26L171.845 23.4645C155.034 39.4203 148.497 57.2534 148.497 81.6564C148.497 103.244 155.968 130.463 169.977 150.173C183.986 172.699 214.806 195.225 263.371 220.566C302.597 241.215 334.351 259.048 332.483 259.987C331.549 261.864 294.191 252.478 249.362 239.338C203.599 226.198 151.298 208.365 131.686 198.04C113.007 188.655 85.9225 168.006 70.9795 151.111C52.3007 129.524 45.7631 112.63 46.697 84.4722Z" fill="#9E8D86"/>
<path d="M410 0C410 0 400.989 11.3194 391.978 25.3417C379.167 45.2778 366.478 133.569 364.237 233.181C366.105 107.366 343.846 42.1984 332.483 25.3417C321.12 8.48489 313.804 0 313.804 0H410Z" fill="#9E8D86"/>
<path d="M45.7631 345.397C44.8292 278.758 47.631 253.417 59.7722 237.461C71.9134 221.505 84.0547 216.812 114.875 217.751C136.355 217.751 191.458 232.768 322.21 281.574L261.503 275.942C212.938 271.25 195.194 273.127 174.647 285.328C150.364 300.345 149.431 305.038 149.431 366.985C149.431 423.299 152.232 436.44 196.128 489H0L23.3485 460.843C44.8292 435.501 46.697 425.177 45.7631 345.397Z" fill="#9E8D86"/>
<path d="M354.897 282.512C349.294 282.512 345.558 278.758 345.558 273.127C345.558 268.434 349.294 263.741 354.897 263.741C359.567 263.741 364.237 268.434 364.237 273.127C364.237 278.758 359.567 282.512 354.897 282.512Z" fill="#9E8D86"/>
<path d="M331.549 460.843C339.954 453.334 351.162 429.87 356.765 409.221L367.039 371.678L372.642 405.466C375.444 424.238 384.784 447.702 394.123 457.088C402.528 467.413 410 484.974 410 487.79H364.237H316.606C316.606 484.974 323.143 468.351 331.549 460.843Z" fill="#9E8D86"/>
</svg>
